<svg width="33" height="33" viewBox="0 0 33 33" fill="none" xmlns="http://www.w3.org/2000/svg">
<g clip-path="url(#clip0)">
<path d="M32.9976 6.70465C32.9976 6.58446 33.145 7.0631 31.1439 1.05988C30.933 0.427345 30.3433 0.0022583 29.6765 0.0022583C21.1365 0.0022583 8.36741 0.0022583 3.32218 0.0022583C2.65536 0.0022583 2.06574 0.42728 1.85481 1.05988C-0.241684 7.34943 0.0556052 6.45557 0.0267978 6.54469C-0.00845418 6.65271 0.00121273 6.62023 0.00121273 7.73579C0.00121273 8.71672 0.395107 9.60698 1.03235 10.2581V25.7807C1.03235 26.9178 1.95747 27.843 3.09462 27.843H10.7351L10.3914 29.9052H9.66819C8.88639 29.9052 8.25037 30.5413 8.25037 31.3231V32.4831C8.25037 32.7678 8.48122 32.9986 8.76594 32.9986H24.233C24.5177 32.9986 24.7486 32.7678 24.7486 32.4831V31.3231C24.7486 30.5413 24.1125 29.9052 23.3308 29.9052H22.6075L22.2638 27.843H29.9043C31.0415 27.843 31.9666 26.9178 31.9666 25.7807C31.9666 25.0403 31.9666 10.9411 31.9666 10.2581C32.6038 9.60691 32.9977 8.71666 32.9977 7.73579V6.70465H32.9976ZM30.1656 1.38592L31.7667 6.18908H26.732L25.8727 1.0334H29.6766C29.8988 1.0334 30.0953 1.17505 30.1656 1.38592ZM30.9353 10.9959V22.6873H2.06349V10.9959C2.38411 11.1486 2.7307 11.2551 3.09462 11.3074V21.1406C3.09462 21.4254 3.32547 21.6562 3.61019 21.6562H29.3886C29.6733 21.6562 29.9042 21.4254 29.9042 21.1406V11.3074C30.2681 11.2551 30.6147 11.1486 30.9353 10.9959ZM1.03235 7.22022H6.18804V7.73579C6.18804 9.15721 5.03162 10.3136 3.61019 10.3136C2.18877 10.3136 1.03235 9.15721 1.03235 7.73579V7.22022ZM12.8456 1.0334L12.416 6.18908H7.31217L8.17143 1.0334H12.8456ZM19.1184 1.0334L19.548 6.18908H13.4508L13.8804 1.0334H19.1184ZM24.8273 1.0334L25.6865 6.18908H20.5828L20.1531 1.0334H24.8273ZM16.4994 10.3136C14.7936 10.3136 13.406 8.92591 13.406 7.22022H19.5928C19.5928 8.92591 18.2051 10.3136 16.4994 10.3136ZM7.21917 7.22022H12.3749V7.73579C12.3749 9.15721 11.2184 10.3136 9.79702 10.3136C8.37559 10.3136 7.21917 9.15721 7.21917 7.73579V7.22022ZM28.8731 20.625H4.12576V11.3074C5.21928 11.1502 6.15594 10.5015 6.7036 9.59248C8.1595 12.0091 11.6924 11.9042 12.9989 9.39792C14.6166 11.989 18.3783 11.9953 20 9.39792C21.3044 11.9004 24.8367 12.0134 26.2953 9.59248C26.8429 10.5014 27.7796 11.1502 28.8731 11.3074V20.625H28.8731ZM23.2018 10.3136C21.7804 10.3136 20.624 9.15721 20.624 7.73579V7.22022H25.7796V7.73579C25.7796 9.15721 24.6232 10.3136 23.2018 10.3136ZM2.83317 1.38592C2.90341 1.17505 3.09997 1.0334 3.32225 1.0334H7.12611L6.26685 6.18908H1.23207L2.83317 1.38592ZM23.7174 31.3231V31.9675H9.28145V31.3231C9.28145 31.1098 9.45487 30.9364 9.66812 30.9364H23.3307C23.5439 30.9364 23.7174 31.1099 23.7174 31.3231ZM21.562 29.9052H11.4367L11.7805 27.843H21.2183L21.562 29.9052ZM30.9353 25.7807C30.9353 26.3492 30.4727 26.8118 29.9042 26.8118C28.3243 26.8118 4.69669 26.8118 3.09462 26.8118C2.52608 26.8118 2.06349 26.3492 2.06349 25.7807V23.7184H30.9353V25.7807ZM31.9665 7.73579C31.9665 9.15721 30.81 10.3136 29.3886 10.3136C27.9672 10.3136 26.8108 9.15721 26.8108 7.73579V7.22022H31.9665V7.73579Z" fill="black"/>
<path d="M15.9838 12.891C15.6991 12.891 15.4683 13.1218 15.4683 13.4066C15.4683 13.6913 15.6991 13.9221 15.9838 13.9221H26.8108C27.0955 13.9221 27.3263 13.6913 27.3263 13.4066C27.3263 13.1218 27.0955 12.891 26.8108 12.891H15.9838Z" fill="black"/>
<path d="M26.8108 15.4689H15.9838C15.6991 15.4689 15.4683 15.6997 15.4683 15.9844C15.4683 16.2692 15.6991 16.5 15.9838 16.5H26.8108C27.0955 16.5 27.3263 16.2692 27.3263 15.9844C27.3263 15.6997 27.0955 15.4689 26.8108 15.4689Z" fill="black"/>
<path d="M23.2018 18.0467H15.9838C15.6991 18.0467 15.4683 18.2775 15.4683 18.5623C15.4683 18.847 15.6991 19.0778 15.9838 19.0778H23.2018C23.4865 19.0778 23.7174 18.847 23.7174 18.5623C23.7174 18.2775 23.4865 18.0467 23.2018 18.0467Z" fill="black"/>
<path d="M12.8904 14.9533C12.5959 14.9533 12.0314 14.9533 11.7462 14.9533L11.3283 13.2816C11.2593 13.0054 10.9798 12.8374 10.7031 12.9064C10.4269 12.9755 10.2588 13.2554 10.328 13.5317L10.6834 14.9534H8.91064L9.26606 13.5317C9.33514 13.2554 9.1672 12.9755 8.89098 12.9064C8.61483 12.8375 8.33481 13.0054 8.26579 13.2816L7.84786 14.9533C7.56017 14.9533 6.99446 14.9533 6.70368 14.9533C6.41896 14.9533 6.18811 15.1841 6.18811 15.4689C6.18811 15.7536 6.41896 15.9844 6.70368 15.9844H6.78243L7.22621 18.647C7.26771 18.8956 7.4827 19.0778 7.73482 19.0778H11.8594C12.1114 19.0778 12.3265 18.8957 12.368 18.647L12.8118 15.9844H12.8905C13.1752 15.9844 13.4061 15.7536 13.4061 15.4689C13.4061 15.1841 13.1751 14.9533 12.8904 14.9533ZM11.4224 18.0467H8.17144L7.82768 15.9844H11.7662L11.4224 18.0467Z" fill="black"/>
<path d="M16.0231 25.4618C16.1851 25.8501 16.7072 25.8856 16.928 25.5508C17.0889 25.3121 17.0175 24.9886 16.7855 24.8361C16.3713 24.5565 15.8264 24.988 16.0231 25.4618Z" fill="black"/>
</g>
<defs>
<clipPath id="clip0">
<rect width="33" height="33" fill="white"/>
</clipPath>
</defs>
</svg>
