<svg width="33" height="33" viewBox="0 0 33 33" fill="none" xmlns="http://www.w3.org/2000/svg">
<path d="M3.59584 10.1667C4.51236 10.1667 5.25802 9.421 5.25802 8.50441C5.25802 7.58782 4.51236 6.84216 3.59584 6.84216C2.67925 6.84216 1.93359 7.58782 1.93359 8.50441C1.93359 9.421 2.67925 10.1667 3.59584 10.1667ZM3.59584 7.80902C3.97927 7.80902 4.29122 8.12098 4.29122 8.50447C4.29122 8.88797 3.97927 9.19992 3.59584 9.19992C3.21241 9.19992 2.90039 8.8879 2.90039 8.50447C2.90039 8.12104 3.21241 7.80902 3.59584 7.80902Z" fill="black"/>
<path d="M7.34364 10.1667C8.26023 10.1667 9.00589 9.421 9.00589 8.50441C9.00589 7.58782 8.26023 6.84216 7.34364 6.84216C6.42705 6.84216 5.6814 7.58782 5.6814 8.50441C5.6814 9.421 6.42705 10.1667 7.34364 10.1667ZM7.34364 7.80902C7.72707 7.80902 8.03909 8.12098 8.03909 8.50447C8.03909 8.88797 7.72707 9.19992 7.34364 9.19992C6.96021 9.19992 6.64819 8.88797 6.64819 8.50447C6.64819 8.12098 6.96015 7.80902 7.34364 7.80902Z" fill="black"/>
<path d="M11.0914 10.1667C12.008 10.1667 12.7536 9.421 12.7536 8.50441C12.7536 7.58782 12.008 6.84216 11.0914 6.84216C10.1749 6.84216 9.4292 7.58782 9.4292 8.50441C9.4292 9.421 10.1749 10.1667 11.0914 10.1667ZM11.0914 7.80902C11.4749 7.80902 11.7868 8.12098 11.7868 8.50447C11.7868 8.88797 11.4749 9.19992 11.0914 9.19992C10.708 9.19992 10.396 8.88797 10.396 8.50447C10.396 8.12098 10.708 7.80902 11.0914 7.80902Z" fill="black"/>
<path d="M32.5166 4.42859C32.7836 4.42859 33 4.21215 33 3.94519V3.30968C33 1.96345 31.9047 0.868195 30.5585 0.868195H16.7088C15.3626 0.868195 14.2673 1.96345 14.2673 3.30968V5.06345H4.08246C1.83137 5.06345 0 6.89488 0 9.14597V28.0488C0 30.3002 1.83137 32.1319 4.08246 32.1319H25.8154C28.0665 32.1319 29.8979 30.3002 29.8979 28.0488V16.6084H30.5585C31.9047 16.6084 33 15.5131 33 14.1669V5.87878C33 5.61182 32.7836 5.39538 32.5166 5.39538C32.2496 5.39538 32.0332 5.61182 32.0332 5.87878V14.1668C32.0332 14.9799 31.3717 15.6415 30.5585 15.6415H24.3394C24.2442 15.6415 24.1512 15.6696 24.072 15.7223L19.8294 18.541C19.6313 18.6727 19.4474 18.6 19.3775 18.5624C19.3074 18.5249 19.1446 18.4119 19.1446 18.1732V16.1249C19.1446 15.8579 18.9282 15.6415 18.6612 15.6415H16.7089C15.8958 15.6415 15.2342 14.9799 15.2342 14.1668V3.30968C15.2342 2.49654 15.8958 1.83499 16.7089 1.83499H30.5586C31.3717 1.83499 32.0333 2.49654 32.0333 3.30968V3.94519C32.0332 4.21215 32.2496 4.42859 32.5166 4.42859ZM16.7088 16.6083H18.1777V18.1732C18.1777 18.6933 18.4625 19.169 18.9209 19.4146C19.1295 19.5264 19.3579 19.5818 19.5857 19.5818C19.8579 19.5818 20.1292 19.5027 20.3645 19.3461L24.4854 16.6083H26.9975V28.0494C26.9975 28.7012 26.4672 29.2314 25.8154 29.2314H8.01861C7.75158 29.2314 7.53521 29.4479 7.53521 29.7148C7.53521 29.9818 7.75158 30.1982 8.01861 30.1982H25.8154C27.0003 30.1982 27.9643 29.2343 27.9643 28.0494V16.6083H28.9311V28.0487C28.9311 29.767 27.5333 31.165 25.8154 31.165H4.08246C2.36453 31.165 0.966797 29.767 0.966797 28.0487V9.14591C0.966797 7.42791 2.36453 6.03025 4.08246 6.03025H14.2673V10.85H4.45629C3.06526 10.85 1.93359 11.9817 1.93359 13.3727V28.0493C1.93359 29.2342 2.89755 30.1982 4.08246 30.1982H6.08502C6.35205 30.1982 6.56842 29.9817 6.56842 29.7148C6.56842 29.4478 6.35205 29.2314 6.08502 29.2314H4.08246C3.43071 29.2314 2.90039 28.7011 2.90039 28.0493V13.3727C2.90039 12.5148 3.59835 11.8168 4.45629 11.8168H14.2673V14.1668C14.2673 15.513 15.3627 16.6083 16.7088 16.6083Z" fill="black"/>
<path d="M21.26 11.9115C20.4646 11.9115 19.8174 12.5587 19.8174 13.3541C19.8174 14.1495 20.4646 14.7966 21.26 14.7966H26.0074C26.8028 14.7966 27.4499 14.1495 27.4499 13.3541C27.4499 12.5587 26.8028 11.9115 26.0074 11.9115H25.9016V8.51402C25.9016 7.74123 25.2728 7.11243 24.5 7.11243H21.2599C20.4645 7.11243 19.8174 7.75954 19.8174 8.55495C19.8174 9.35037 20.4645 9.99748 21.2599 9.99748H21.6065V11.9115H21.26ZM22.0899 9.03068H21.26C20.9977 9.03068 20.7842 8.81728 20.7842 8.55495C20.7842 8.29263 20.9977 8.07922 21.26 8.07922H24.5C24.7398 8.07922 24.9348 8.27426 24.9348 8.51402V12.3949C24.9348 12.6619 25.1512 12.8783 25.4182 12.8783H26.0075C26.2697 12.8783 26.4832 13.0917 26.4832 13.3541C26.4832 13.6164 26.2697 13.8298 26.0075 13.8298H21.26C20.9978 13.8298 20.7843 13.6164 20.7843 13.3541C20.7843 13.0917 20.9978 12.8783 21.26 12.8783H22.09C22.357 12.8783 22.5734 12.6619 22.5734 12.3949V9.51408C22.5733 9.24711 22.3569 9.03068 22.0899 9.03068Z" fill="black"/>
<path d="M25.9017 4.46108C25.9017 3.27695 24.9383 2.31357 23.7542 2.31357C22.5701 2.31357 21.6067 3.27695 21.6067 4.46108C21.6067 5.64521 22.5701 6.6086 23.7542 6.6086C24.9383 6.6086 25.9017 5.64528 25.9017 4.46108ZM22.5735 4.46108C22.5735 3.81004 23.1032 3.28037 23.7542 3.28037C24.4052 3.28037 24.9349 3.81004 24.9349 4.46108C24.9349 5.11212 24.4052 5.6418 23.7542 5.6418C23.1032 5.6418 22.5735 5.11212 22.5735 4.46108Z" fill="black"/>
<path d="M7.85742 19.1416C7.85742 19.4085 8.07379 19.625 8.34082 19.625H15.7969C16.0639 19.625 16.2803 19.4085 16.2803 19.1416C16.2803 18.8746 16.0639 18.6582 15.7969 18.6582H8.34082C8.07386 18.6582 7.85742 18.8746 7.85742 19.1416Z" fill="black"/>
<path d="M15.7969 21.1912H6.08496C5.81793 21.1912 5.60156 21.4076 5.60156 21.6746C5.60156 21.9415 5.81793 22.158 6.08496 22.158H15.7969C16.0639 22.158 16.2803 21.9415 16.2803 21.6746C16.2803 21.4076 16.0638 21.1912 15.7969 21.1912Z" fill="black"/>
<path d="M15.7969 23.7242H6.08496C5.81793 23.7242 5.60156 23.9406 5.60156 24.2076C5.60156 24.4745 5.81793 24.691 6.08496 24.691H15.7969C16.0639 24.691 16.2803 24.4745 16.2803 24.2076C16.2803 23.9406 16.0638 23.7242 15.7969 23.7242Z" fill="black"/>
<path d="M12.5742 26.2571H6.08496C5.81793 26.2571 5.60156 26.4735 5.60156 26.7405C5.60156 27.0075 5.81793 27.2239 6.08496 27.2239H12.5742C12.8413 27.2239 13.0576 27.0075 13.0576 26.7405C13.0576 26.4735 12.8412 26.2571 12.5742 26.2571Z" fill="black"/>
</svg>
