<svg width="33" height="33" viewBox="0 0 33 33" fill="none" xmlns="http://www.w3.org/2000/svg">
<path d="M32.2588 3.54492C32.6675 3.54492 33 3.21241 33 2.80371V0.741211C33 0.332514 32.6675 0 32.2588 0H30.1963C29.7876 0 29.4551 0.332514 29.4551 0.741211V1.28906H18.2725V0.741211C18.2725 0.332514 17.9399 0 17.5312 0H15.4688C15.0601 0 14.7275 0.332514 14.7275 0.741211V1.28906H3.54492V0.741211C3.54492 0.332514 3.21241 0 2.80371 0H0.741211C0.332514 0 0 0.332514 0 0.741211V2.80371C0 3.21241 0.332514 3.54492 0.741211 3.54492H1.28906V14.7275H0.741211C0.332514 14.7275 0 15.0601 0 15.4688V17.5312C0 17.9399 0.332514 18.2725 0.741211 18.2725H1.28906V29.4551H0.741211C0.332514 29.4551 0 29.7876 0 30.1963V32.2588C0 32.6675 0.332514 33 0.741211 33H2.80371C3.21241 33 3.54492 32.6675 3.54492 32.2588V31.7109H14.7275V32.2588C14.7275 32.6675 15.0601 33 15.4688 33H17.5312C17.9399 33 18.2725 32.6675 18.2725 32.2588V31.7109H29.4551V32.2588C29.4551 32.6675 29.7876 33 30.1963 33H32.2588C32.6675 33 33 32.6675 33 32.2588V30.1963C33 29.7876 32.6675 29.4551 32.2588 29.4551H31.7109V18.2725H32.2588C32.6675 18.2725 33 17.9399 33 17.5312V15.4688C33 15.0601 32.6675 14.7275 32.2588 14.7275H31.7109V3.54492H32.2588ZM30.4219 0.966797H32.0332V2.57812H30.4219V0.966797ZM15.6943 0.966797H17.3057V2.57812H15.6943V0.966797ZM0.966797 0.966797H2.57812V2.57812H0.966797V0.966797ZM0.966797 15.6943H2.57812V17.3057H0.966797V15.6943ZM2.57812 32.0332H0.966797V30.4219H2.57812V32.0332ZM17.3057 32.0332H15.6943V30.4219H17.3057V32.0332ZM32.0332 32.0332H30.4219V30.4219H32.0332V32.0332ZM32.0332 17.3057H30.4219V15.6943H32.0332V17.3057ZM30.7441 14.7275H30.1963C29.7876 14.7275 29.4551 15.0601 29.4551 15.4688V17.5312C29.4551 17.9399 29.7876 18.2725 30.1963 18.2725H30.7441V29.4551H30.1963C29.7876 29.4551 29.4551 29.7876 29.4551 30.1963V30.7441H18.2725V30.1963C18.2725 29.7876 17.9399 29.4551 17.5312 29.4551H15.4688C15.0601 29.4551 14.7275 29.7876 14.7275 30.1963V30.7441H3.54492V30.1963C3.54492 29.7876 3.21241 29.4551 2.80371 29.4551H2.25586V18.2725H2.80371C3.21241 18.2725 3.54492 17.9399 3.54492 17.5312V15.4688C3.54492 15.0601 3.21241 14.7275 2.80371 14.7275H2.25586V3.54492H2.80371C3.21241 3.54492 3.54492 3.21241 3.54492 2.80371V2.25586H14.7275V2.80371C14.7275 3.21241 15.0601 3.54492 15.4688 3.54492H17.5312C17.9399 3.54492 18.2725 3.21241 18.2725 2.80371V2.25586H29.4551V2.80371C29.4551 3.21241 29.7876 3.54492 30.1963 3.54492H30.7441V14.7275Z" fill="black"/>
<path d="M23.6554 6.84561C23.1679 6.00076 22.2588 5.47592 21.2831 5.47592H11.717C10.7413 5.47592 9.83232 6.00076 9.3448 6.84555L4.56102 15.1304C4.07356 15.9752 4.07356 17.0248 4.56109 17.8696L9.34473 26.1544C9.83232 26.9992 10.7413 27.524 11.717 27.524H21.2831C22.2588 27.524 23.1678 26.9992 23.6553 26.1545L25.9409 22.1957C26.0744 21.9644 25.9952 21.6688 25.764 21.5354C25.5326 21.402 25.2371 21.481 25.1036 21.7123L23.5768 24.3568H9.42323L5.3984 17.3863C5.0829 16.8397 5.0829 16.1603 5.39833 15.6138L9.32127 8.81975H12.6748C12.9417 8.81975 13.1582 8.60338 13.1582 8.33635C13.1582 8.06932 12.9417 7.85295 12.6748 7.85295H9.8795L10.1821 7.32888C10.4975 6.78232 11.0857 6.44272 11.717 6.44272H21.2831C21.9144 6.44272 22.5026 6.78232 22.818 7.32895L23.1206 7.85295H14.9306C14.6637 7.85295 14.4472 8.06932 14.4472 8.33635C14.4472 8.60338 14.6637 8.81975 14.9306 8.81975H23.6788L27.6017 15.6137C27.9173 16.1603 27.9173 16.8397 27.6018 17.3862L26.2714 19.6904C26.1379 19.9216 26.2171 20.2173 26.4483 20.3507C26.6794 20.4841 26.9752 20.405 27.1087 20.1738L28.4391 17.8695C28.9266 17.0248 28.9266 15.9752 28.439 15.1304L23.6554 6.84561ZM23.0186 25.3236L22.818 25.6711C22.5026 26.2176 21.9144 26.5572 21.2832 26.5572H11.717C11.0857 26.5572 10.4975 26.2176 10.182 25.671L9.98153 25.3236H23.0186Z" fill="black"/>
<path d="M8.20618 14.2258C7.93921 14.2258 7.72278 14.4422 7.72278 14.7092V18.2253C7.72278 18.5237 7.96538 18.7694 8.26341 18.7731C8.32696 18.774 9.43427 18.7714 9.46314 18.7713C9.73011 18.7698 9.94531 18.5522 9.94383 18.2852C9.94235 18.0191 9.72624 17.8045 9.4605 17.8045C9.4596 17.8045 9.45863 17.8045 9.45773 17.8045C9.45154 17.8045 9.03801 17.8068 8.68964 17.8074V14.7092C8.68957 14.4422 8.47314 14.2258 8.20618 14.2258Z" fill="black"/>
<path d="M17.9463 15.1969C18.2484 15.1727 18.5385 15.2483 18.7862 15.4156C19.0074 15.5649 19.3078 15.5068 19.4573 15.2856C19.6067 15.0644 19.5486 14.7639 19.3273 14.6144C18.8961 14.323 18.3916 14.1913 17.8689 14.2332C16.7595 14.3223 15.8644 15.227 15.7869 16.3376C15.7423 16.9761 15.9573 17.5846 16.392 18.0508C16.8207 18.5105 17.4271 18.7742 18.0555 18.7742C19.2208 18.7742 20.0549 17.8676 20.0841 16.57C20.0875 16.4256 20.0314 16.2833 19.9303 16.1797C19.829 16.0761 19.6878 16.0166 19.5429 16.0166H18.53C18.2629 16.0166 18.0466 16.233 18.0466 16.5C18.0466 16.767 18.2629 16.9834 18.53 16.9834H19.0578C18.9392 17.4313 18.6349 17.8074 18.0555 17.8074C17.6888 17.8074 17.3492 17.6597 17.099 17.3914C16.8491 17.1234 16.7256 16.7731 16.7512 16.405C16.796 15.7674 17.3097 15.248 17.9463 15.1969Z" fill="black"/>
<path d="M23.0031 18.7742C24.2571 18.7742 25.2773 17.754 25.2773 16.5C25.2773 15.246 24.2571 14.2258 23.0031 14.2258C21.7491 14.2258 20.7288 15.246 20.7288 16.5C20.7288 17.754 21.749 18.7742 23.0031 18.7742ZM23.0031 15.1926C23.724 15.1926 24.3105 15.7791 24.3105 16.5C24.3105 17.2209 23.724 17.8074 23.0031 17.8074C22.2821 17.8074 21.6956 17.2209 21.6956 16.5C21.6956 15.7791 22.2821 15.1926 23.0031 15.1926Z" fill="black"/>
<path d="M10.5883 16.5C10.5883 17.754 11.6085 18.7742 12.8625 18.7742C14.1165 18.7742 15.1367 17.754 15.1367 16.5C15.1367 15.246 14.1165 14.2258 12.8625 14.2258C11.6085 14.2258 10.5883 15.246 10.5883 16.5ZM12.8625 15.1926C13.5834 15.1926 14.1699 15.7791 14.1699 16.5C14.1699 17.2209 13.5834 17.8074 12.8625 17.8074C12.1416 17.8074 11.5551 17.2209 11.5551 16.5C11.5551 15.7791 12.1416 15.1926 12.8625 15.1926Z" fill="black"/>
<path d="M20.9209 11.4634C20.8897 10.7558 20.2983 10.2013 19.5746 10.2013H14.1153C13.7566 10.2013 13.4085 10.35 13.1605 10.6092C12.909 10.8722 12.7792 11.2176 12.7953 11.5818C12.8265 12.2895 13.4178 12.8439 14.1415 12.8439H19.6009C19.9596 12.8439 20.3076 12.6952 20.5556 12.436C20.8072 12.1731 20.937 11.8277 20.9209 11.4634ZM19.8571 11.7676C19.7895 11.8382 19.6986 11.8771 19.6009 11.8771H14.1415C13.94 11.8771 13.7694 11.7255 13.7611 11.5392C13.7568 11.4411 13.7915 11.3481 13.859 11.2776C13.9266 11.207 14.0176 11.1681 14.1152 11.1681H19.5745C19.7761 11.1681 19.9467 11.3197 19.9549 11.506C19.9594 11.6042 19.9246 11.6971 19.8571 11.7676Z" fill="black"/>
<path d="M14.1416 22.8867H19.6009C19.9596 22.8867 20.3077 22.738 20.5556 22.4788C20.8072 22.2159 20.937 21.8705 20.9209 21.5061C20.8897 20.7985 20.2983 20.2441 19.5746 20.2441H14.1153C13.7566 20.2441 13.4085 20.3928 13.1605 20.652C12.909 20.9149 12.7792 21.2603 12.7953 21.6245C12.8265 22.3322 13.4178 22.8867 14.1416 22.8867ZM13.8591 21.3204C13.9266 21.2497 14.0176 21.2109 14.1153 21.2109H19.5746C19.7761 21.2109 19.9468 21.3625 19.955 21.5487C19.9593 21.6469 19.9246 21.7398 19.8571 21.8104C19.7895 21.881 19.6985 21.9199 19.6008 21.9199H14.1414C13.9399 21.9199 13.7693 21.7683 13.761 21.5819C13.7568 21.4838 13.7916 21.3909 13.8591 21.3204Z" fill="black"/>
</svg>
