<svg width="33" height="33" viewBox="0 0 33 33" fill="none" xmlns="http://www.w3.org/2000/svg">
<g clip-path="url(#clip0)">
<path d="M31.3077 5.5H1.69235C0.761514 5.5 0 6.26151 0 7.19228V25.8077C0 26.7384 0.761514 27.5 1.69235 27.5H31.3077C32.2384 27.5 33.0001 26.7385 33.0001 25.8077V7.19228C33 6.26151 32.2385 5.5 31.3077 5.5ZM30.6726 6.76915L17.4735 16.6693C17.2362 16.8499 16.8719 16.9629 16.4999 16.9612C16.128 16.9629 15.7638 16.8499 15.5264 16.6693L2.32734 6.76915H30.6726ZM23.6221 17.3225L30.8144 26.2072C30.8216 26.2161 30.8304 26.2228 30.8381 26.2309H2.16189C2.16949 26.2225 2.17839 26.2161 2.18561 26.2072L9.37793 17.3225C9.5983 17.0501 9.55653 16.6506 9.28357 16.4298C9.01113 16.2094 8.61171 16.2512 8.39128 16.5237L1.26921 25.3216V7.56244L14.7653 17.6845C15.2726 18.0624 15.8898 18.2287 16.4999 18.2303C17.1091 18.229 17.7268 18.0628 18.2344 17.6845L31.7305 7.56244V25.3215L24.6087 16.5237C24.3882 16.2512 23.9884 16.2093 23.7164 16.4298C23.4435 16.6501 23.4016 17.0501 23.6221 17.3225Z" fill="black"/>
</g>
<defs>
<clipPath id="clip0">
<rect width="33" height="33" fill="white"/>
</clipPath>
</defs>
</svg>
