<svg width="31" height="31" viewBox="0 0 31 31" fill="none" xmlns="http://www.w3.org/2000/svg">
<path d="M31 28.7295V5.87014C31 4.64195 29.9632 3.59963 28.7295 3.59963H22.3025C22.092 1.57997 20.3761 0 18.297 0C16.218 0 14.502 1.57997 14.2915 3.59963H2.27051C1.03541 3.59963 0 4.63414 0 5.87014V28.7295C0 29.9815 1.01852 31 2.27051 31H28.7295C29.6953 31 31 30.0918 31 28.7295ZM21.3907 19.712L30.0918 10.7278V28.413L21.3907 19.712ZM18.297 0.908203C20.0169 0.908203 21.4162 2.30332 21.4162 4.01819C21.4162 5.24209 20.9314 6.95968 20.1511 8.50072C19.3475 10.0877 18.5831 10.8016 18.297 10.8016C18.0234 10.8016 17.2718 10.1538 16.4196 8.41565C15.6652 6.87697 15.1778 5.15084 15.1778 4.01819C15.1778 2.30332 16.5771 0.908203 18.297 0.908203ZM0.908203 5.87014C0.908203 5.65774 0.957125 5.45654 1.04419 5.2772L5.98821 10.2212L0.908203 15.3012V5.87014ZM0.908203 28.7295V21.2678L8.97153 13.2045L25.8588 30.0918H2.27051C1.5193 30.0918 0.908203 29.4806 0.908203 28.7295ZM28.7295 30.0918H27.1433L9.29261 12.2412C9.11527 12.0639 8.82773 12.0639 8.65045 12.2412L0.908203 19.9834V16.5856L6.95151 10.5423C7.12885 10.3649 7.12885 10.0774 6.95151 9.90008L1.68962 4.63819C1.86593 4.5547 2.06283 4.50784 2.27051 4.50784H4.90206L18.0152 17.621C18.1937 17.7993 18.4837 17.7982 18.6606 17.6177L24.4029 11.7612C24.8139 11.3419 24.1656 10.7063 23.7544 11.1254L18.3332 16.6544L6.1865 4.50784H14.2915C14.4128 5.9471 15.026 7.63629 15.6041 8.8155C16.8389 11.3338 17.8212 11.7098 18.297 11.7098C19.4226 11.7098 20.5352 9.75259 20.9613 8.91105C21.7174 7.41808 22.2027 5.81305 22.3039 4.50784H28.7295C29.1459 4.50784 29.519 4.69583 29.7691 4.99112L25.5557 9.28825C25.1453 9.70694 25.7922 10.3443 26.2042 9.92412L30.0918 5.95927V9.4223L20.4274 19.4012C20.2549 19.5793 20.2572 19.8629 20.4325 20.0382L29.869 29.4748C29.6254 29.846 29.2057 30.0918 28.7295 30.0918Z" fill="black"/>
<path d="M18.2969 6.24826C19.4661 6.24826 20.4173 5.2952 20.4173 4.12361C20.4173 2.95203 19.4661 1.99896 18.2969 1.99896C17.1277 1.99896 16.1765 2.95203 16.1765 4.12361C16.1765 5.2952 17.1278 6.24826 18.2969 6.24826ZM18.2969 2.90723C18.9653 2.90723 19.5091 3.45294 19.5091 4.12367C19.5091 4.79441 18.9654 5.34012 18.2969 5.34012C17.6285 5.34012 17.0847 4.79441 17.0847 4.12367C17.0847 3.45294 17.6285 2.90723 18.2969 2.90723Z" fill="black"/>
<path d="M12.7385 19.601C12.4765 19.0755 11.6637 19.481 11.9258 20.0064C12.1414 20.4389 12.2508 20.9039 12.2508 21.3887C12.2508 22.6126 11.7661 24.3302 10.9857 25.8711C10.1821 27.4581 9.41773 28.172 9.13158 28.172C8.85803 28.172 8.1064 27.5243 7.25421 25.7861C6.49985 24.2475 6.01239 22.5213 6.01239 21.3887C6.01239 19.6738 7.41163 18.2787 9.13158 18.2787C9.5852 18.2787 10.0236 18.3744 10.4346 18.5631C10.9681 18.8082 11.3472 17.9829 10.8136 17.7378C10.2829 17.4941 9.71701 17.3705 9.13164 17.3705C6.91091 17.3705 5.10425 19.173 5.10425 21.3887C5.10425 22.9188 5.79363 24.87 6.43882 26.1859C7.67349 28.7042 8.65593 29.0802 9.13164 29.0802C10.2572 29.0802 11.3698 27.1229 11.7959 26.2814C12.6495 24.596 13.159 22.7668 13.159 21.3886C13.159 20.762 13.0175 20.1606 12.7385 19.601Z" fill="black"/>
<path d="M9.13158 19.3695C7.96242 19.3695 7.01123 20.3226 7.01123 21.4942C7.01123 22.6657 7.96242 23.6188 9.13158 23.6188C10.3007 23.6188 11.2519 22.6657 11.2519 21.4942C11.2519 20.3226 10.3007 19.3695 9.13158 19.3695ZM9.13158 22.7106C8.46321 22.7106 7.91943 22.1649 7.91943 21.4942C7.91943 20.8234 8.46321 20.2777 9.13158 20.2777C9.79996 20.2777 10.3437 20.8234 10.3437 21.4942C10.3437 22.1649 9.79996 22.7106 9.13158 22.7106Z" fill="black"/>
</svg>
