<svg width="628" height="439" viewBox="0 0 628 439" fill="none" xmlns="http://www.w3.org/2000/svg">
<path d="M27.9724 168.471C28.5729 205.547 42.4291 209.561 59.445 205.694C78.8837 201.277 94.8384 187.431 102.702 169.111L108.125 156.477C111.73 148.078 111.852 138.59 108.462 130.101C105.073 121.613 98.4508 114.818 90.0523 111.213H90.0522C85.8937 109.427 81.4243 108.478 76.8992 108.421C72.3741 108.363 67.8819 109.197 63.6791 110.875C59.4763 112.553 55.6452 115.043 52.4045 118.202C49.1638 121.361 46.5771 125.128 44.7919 129.287C27.3413 136.143 23.8948 150.336 27.9724 168.471Z" fill="#2F2E41"/>
<path d="M137.387 93.8488L142.61 85.0102C143.247 83.9309 143.632 82.7212 143.736 81.4718C143.839 80.2224 143.659 78.9658 143.207 77.7962C142.756 76.6266 142.046 75.5744 141.13 74.7186C140.213 73.8628 139.116 73.2255 137.918 72.8547C136.654 72.4632 135.315 72.3795 134.012 72.6106C132.709 72.8417 131.481 73.3809 130.429 74.1831C129.376 74.9854 128.531 76.0276 127.963 77.2228C127.395 78.418 127.121 79.7316 127.164 81.0541L127.471 90.5549L102.927 157.825L116.311 160.62L137.387 93.8488Z" fill="#9F616A"/>
<path d="M8.25988 259.682L1.83137 267.686C1.04636 268.664 0.492865 269.806 0.212404 271.028C-0.0680564 272.25 -0.0681988 273.519 0.211986 274.741C0.492172 275.963 1.04541 277.106 1.8302 278.084C2.61499 279.061 3.61095 279.848 4.74336 280.386C5.93861 280.954 7.25217 281.227 8.57459 281.184C9.89701 281.141 11.19 280.782 12.3457 280.138C13.5015 279.494 14.4866 278.583 15.2189 277.481C15.9512 276.379 16.4095 275.118 16.5556 273.802L17.6052 264.355L51.4821 201.268L38.6322 196.595L8.25988 259.682Z" fill="#9F616A"/>
<path d="M47.9778 326.274L48.924 337.641L49.146 340.293L112.063 334.241C114.232 333.997 116.313 333.244 118.136 332.044C119.959 330.844 121.473 329.231 122.556 327.336C123.638 325.441 124.258 323.317 124.365 321.137C124.473 318.956 124.064 316.782 123.173 314.789L102.882 271.224L95.8727 256.177L65.5003 249.167C40.4548 268.339 62.9887 289.496 91.3402 310.899C92.45 311.74 93.5714 312.581 94.7046 313.423L47.9778 326.274Z" fill="#2F2E41"/>
<path d="M26.7772 365.637C27.5438 365.746 28.3257 365.657 29.0479 365.377C29.7701 365.098 30.4083 364.638 30.9015 364.04L51.4821 339.125L50.3139 327.442L43.2966 323.231C42.7225 322.887 42.0804 322.671 41.4148 322.6C40.7492 322.529 40.076 322.603 39.4421 322.819C38.8082 323.034 38.2287 323.384 37.744 323.846C37.2592 324.308 36.8808 324.87 36.635 325.492L23.2117 359.501C22.961 360.136 22.8575 360.82 22.9088 361.501C22.9601 362.182 23.165 362.842 23.5081 363.433C23.8512 364.023 24.3236 364.528 24.8898 364.91C25.456 365.292 26.1012 365.54 26.7772 365.637Z" fill="#2F2E41"/>
<path opacity="0.2" d="M44.4731 323.937L45.6413 337.956L48.9239 337.641L108.559 331.905C110.728 331.66 112.808 330.908 114.631 329.708C116.454 328.508 117.969 326.895 119.051 324.999C120.133 323.104 120.754 320.98 120.861 318.8C120.968 316.62 120.559 314.445 119.668 312.453L102.882 274.869V271.224L95.8726 256.177L65.5002 249.167C40.4547 268.339 62.9886 289.496 91.3401 310.899L91.1999 311.086L44.4731 323.937Z" fill="black"/>
<path d="M20.9363 360.964C21.7029 361.073 22.4848 360.984 23.207 360.704C23.9292 360.425 24.5675 359.964 25.0607 359.367L45.6413 334.452L44.4731 322.769L37.4557 318.558C36.8817 318.214 36.2396 317.998 35.574 317.927C34.9083 317.856 34.2352 317.93 33.6013 318.146C32.9674 318.361 32.3879 318.711 31.9032 319.173C31.4184 319.635 31.04 320.197 30.7942 320.819L17.3709 354.828C17.1202 355.463 17.0166 356.147 17.068 356.828C17.1193 357.509 17.3242 358.169 17.6673 358.76C18.0104 359.35 18.4828 359.855 19.0489 360.237C19.6151 360.618 20.2604 360.867 20.9363 360.964Z" fill="#2F2E41"/>
<path d="M42.1367 321.601L43.3049 335.62L106.222 329.567C108.391 329.322 110.471 328.57 112.295 327.37C114.118 326.171 115.632 324.558 116.715 322.663C117.798 320.768 118.419 318.644 118.527 316.465C118.635 314.285 118.227 312.11 117.337 310.117L100.545 272.533V251.504L59.6592 244.494C33.6282 264.418 58.9913 286.49 88.8635 308.75L42.1367 321.601Z" fill="#2F2E41"/>
<path d="M81.8546 156.873C91.532 156.873 99.3771 149.027 99.3771 139.349C99.3771 129.671 91.532 121.825 81.8546 121.825C72.1771 121.825 64.332 129.671 64.332 139.349C64.332 149.027 72.1771 156.873 81.8546 156.873Z" fill="#9F616A"/>
<path d="M58.4912 168.556L83.0228 184.912L104.05 180.239L92.3681 168.556V151.032L73.6774 149.864C73.285 156.862 69.2754 163.265 58.4912 168.556Z" fill="#9F616A"/>
<path d="M54.9868 250.336L100.545 256.177L111.059 207.109C115.943 194.085 113.141 182.577 104.098 172.302C103.752 170.572 102.831 169.011 101.484 167.872C100.138 166.734 98.4451 166.085 96.6825 166.032L92.3682 166.219C92.8562 181.714 81.4416 177.982 64.3321 165.051L62.2661 165.671C59.5954 166.472 57.3024 168.209 55.8068 170.562C54.3112 172.916 53.713 175.729 54.1217 178.488L56.0055 191.205C56.8043 196.247 58.0453 201.208 59.7139 206.033C64.3848 219.993 62.7156 234.773 54.9868 250.336Z" fill="white"/>
<path d="M33.9597 197.763L54.9867 204.773L64.3321 170.893L61.1661 169.453C58.5412 168.26 55.5607 168.11 52.8294 169.034C50.0981 169.958 47.8206 171.887 46.4591 174.429L33.9597 197.763Z" fill="white"/>
<path d="M95.8726 166.22L107.555 179.07L121.572 156.873L104.049 147.527L95.8726 166.22Z" fill="white"/>
<path d="M61.4116 134.092C72.4227 138.244 84.1739 137.814 96.4567 134.092V120.072H61.4116V134.092Z" fill="#2F2E41"/>
<path d="M607.911 374.748L595.831 379.782L515.296 270.043L456.909 381.795L441.809 378.775L486.103 224.738H537.443L607.911 374.748Z" fill="#2F2E41"/>
<path d="M624.118 400.347C623.448 400.53 622.749 400.578 622.061 400.49C621.372 400.401 620.708 400.177 620.107 399.831L594.63 385.161C593.943 384.765 593.355 384.216 592.914 383.557C592.472 382.897 592.189 382.145 592.085 381.359C591.981 380.572 592.059 379.772 592.314 379.02C592.569 378.269 592.993 377.586 593.554 377.025L595.831 374.748L607.911 373.741L626.378 391.471C627.05 392.116 627.539 392.927 627.794 393.823C628.05 394.718 628.064 395.665 627.834 396.568C627.604 397.47 627.139 398.295 626.486 398.959C625.834 399.623 625.016 400.102 624.118 400.347Z" fill="#2F2E41"/>
<path d="M426.609 404.375C427.279 404.557 427.978 404.606 428.666 404.517C429.355 404.428 430.019 404.204 430.62 403.858L456.097 389.188C456.784 388.792 457.372 388.243 457.813 387.584C458.254 386.925 458.538 386.172 458.642 385.386C458.746 384.599 458.668 383.799 458.413 383.047C458.158 382.296 457.734 381.613 457.173 381.052L454.896 378.775L442.816 377.768L424.348 395.498C423.677 396.143 423.188 396.955 422.932 397.85C422.677 398.745 422.663 399.693 422.893 400.595C423.123 401.497 423.588 402.323 424.24 402.987C424.893 403.651 425.711 404.13 426.609 404.375Z" fill="#2F2E41"/>
<path d="M451.876 64.6607L446.842 67.681L436.412 50.7295C435.771 49.6883 435.39 48.5084 435.301 47.2892C435.212 46.07 435.417 44.8473 435.9 43.7241C436.383 42.601 437.128 41.6103 438.074 40.8357C439.019 40.0611 440.137 39.5253 441.333 39.2735C442.397 39.0496 443.496 39.0557 444.557 39.2914C445.618 39.5271 446.616 39.9869 447.485 40.6401C448.354 41.2933 449.073 42.1247 449.594 43.0786C450.115 44.0324 450.426 45.0867 450.506 46.1706L451.876 64.6607Z" fill="#FFB9B9"/>
<path d="M591.308 196.637L593.396 191.151L612.075 198.023C613.222 198.445 614.251 199.136 615.074 200.039C615.898 200.942 616.493 202.03 616.808 203.212C617.123 204.393 617.15 205.632 616.885 206.826C616.621 208.019 616.074 209.132 615.29 210.069C614.592 210.903 613.725 211.578 612.745 212.049C611.766 212.52 610.697 212.776 609.61 212.8C608.524 212.823 607.444 212.615 606.445 212.187C605.446 211.76 604.55 211.124 603.816 210.322L591.308 196.637Z" fill="#FFB9B9"/>
<path d="M512.277 125.067C520.616 125.067 527.377 118.306 527.377 109.966C527.377 101.625 520.616 94.864 512.277 94.864C503.937 94.864 497.177 101.625 497.177 109.966C497.177 118.306 503.937 125.067 512.277 125.067Z" fill="#FFB9B9"/>
<path d="M525.363 142.182H504.223V119.027L522.344 117.013L525.363 142.182Z" fill="#FFB9B9"/>
<path d="M540.464 230.779H483.083C485.106 198.76 486.709 167.817 483.083 150.237L486.42 134.22C486.882 132.001 488.162 130.037 490.006 128.719C491.85 127.401 494.123 126.825 496.372 127.106L504.223 128.088C509.54 137.436 515.966 137.346 523.35 129.094H532.807C534.068 129.094 535.316 129.346 536.478 129.834C537.641 130.322 538.694 131.038 539.577 131.938C540.459 132.838 541.154 133.906 541.619 135.078C542.084 136.25 542.311 137.503 542.286 138.763C544.749 150.044 545.569 161.622 544.719 173.138L540.464 230.779Z" fill="#3F3D56"/>
<path d="M443.822 64.6605L451.876 60.6337L495.163 132.115L483.083 150.237L443.822 64.6605Z" fill="#3F3D56"/>
<path d="M591.422 199.502L598.304 193.696L561.734 142.446C558.156 137.432 553.224 133.541 547.515 131.23C541.806 128.918 535.557 128.281 529.499 129.394L528.345 129.606L542.173 153.807L560.386 167.598L591.422 199.502Z" fill="#3F3D56"/>
<path d="M529.74 101.051C529.74 101.051 532.562 94.8427 525.225 92.0207C525.225 92.0207 519.018 81.8619 506.603 88.6344C506.603 88.6344 498.138 92.0207 498.138 101.051C498.138 110.081 495.316 111.774 495.316 111.774C495.316 111.774 499.518 107.463 500.647 104.077C501.775 100.69 510.553 99.9221 513.939 103.308C517.325 106.695 525.79 106.13 525.79 106.13L525.225 118.547C525.225 118.547 528.047 111.21 529.176 111.21C530.304 111.21 531.433 101.051 529.74 101.051Z" fill="#2F2E41"/>
<path d="M528.346 439C579.374 439 620.74 436.845 620.74 434.187C620.74 431.529 579.374 429.375 528.346 429.375C477.318 429.375 435.951 431.529 435.951 434.187C435.951 436.845 477.318 439 528.346 439Z" fill="#E6E6E6"/>
<path d="M67.0329 436.731C94.005 436.731 115.87 435.592 115.87 434.187C115.87 432.782 94.005 431.643 67.0329 431.643C40.0609 431.643 18.1958 432.782 18.1958 434.187C18.1958 435.592 40.0609 436.731 67.0329 436.731Z" fill="#E6E6E6"/>
<path d="M440.164 84.6735L143.268 111.285C141.81 111.414 140.361 110.959 139.238 110.021C138.115 109.082 137.41 107.737 137.277 106.279L130.677 32.6251C130.548 31.1671 131.002 29.7176 131.941 28.5944C132.879 27.4712 134.225 26.766 135.682 26.6337L432.578 0.0222666C434.036 -0.106671 435.485 0.347936 436.608 1.28636C437.731 2.22479 438.436 3.57041 438.569 5.02805L445.169 78.6822C445.298 80.1401 444.844 81.5897 443.905 82.7129C442.967 83.8361 441.621 84.5412 440.164 84.6735Z" fill="white"/>
<path d="M177.962 88.696C190.766 88.696 201.146 78.315 201.146 65.5094C201.146 52.7038 190.766 42.3228 177.962 42.3228C165.157 42.3228 154.777 52.7038 154.777 65.5094C154.777 78.315 165.157 88.696 177.962 88.696Z" fill="white"/>
<path d="M229.913 45.3332C228.894 45.4265 227.953 45.9205 227.298 46.7066C226.642 47.4928 226.325 48.507 226.417 49.5265C226.508 50.5461 227 51.4877 227.785 52.1448C228.57 52.8019 229.583 53.1207 230.603 53.0312L412.039 36.7687C412.545 36.7241 413.037 36.5802 413.488 36.3452C413.938 36.1101 414.337 35.7886 414.663 35.3991C414.989 35.0095 415.235 34.5595 415.387 34.0748C415.539 33.5901 415.594 33.0802 415.548 32.5743C415.503 32.0683 415.358 31.5763 415.123 31.1263C414.887 30.6764 414.565 30.2773 414.175 29.9519C413.785 29.6265 413.335 29.3811 412.85 29.2299C412.365 29.0788 411.855 29.0246 411.349 29.0707L229.913 45.3332Z" fill="white"/>
<path d="M231.983 68.4272C231.477 68.4716 230.984 68.6153 230.534 68.8503C230.083 69.0852 229.683 69.4067 229.357 69.7963C229.031 70.1859 228.785 70.636 228.633 71.1208C228.481 71.6057 228.426 72.1157 228.471 72.6218C228.517 73.1279 228.662 73.6201 228.897 74.0702C229.133 74.5203 229.455 74.9194 229.845 75.2449C230.236 75.5703 230.686 75.8155 231.171 75.9666C231.656 76.1176 232.167 76.1715 232.672 76.1252L414.108 59.8627C414.614 59.8181 415.107 59.6742 415.557 59.4392C416.007 59.2042 416.407 58.8827 416.733 58.4931C417.059 58.1035 417.304 57.6535 417.456 57.1688C417.608 56.6841 417.663 56.1742 417.618 55.6683C417.572 55.1624 417.428 54.6703 417.192 54.2204C416.956 53.7704 416.634 53.3713 416.244 53.0459C415.854 52.7205 415.404 52.4752 414.919 52.324C414.434 52.1728 413.924 52.1187 413.419 52.1647L231.983 68.4272Z" fill="white"/>
<path d="M174.776 66.9116L164.694 67.8446L165.657 78.2591L160.406 78.745L158.049 53.2601L174.642 51.7246L175.035 55.9779L163.693 57.0275L164.302 63.6087L174.384 62.6758L174.776 66.9116ZM188.077 76.5376C185.299 76.7946 182.957 76.1522 181.049 74.6105C179.153 73.0677 178.073 70.8786 177.811 68.043L177.766 67.5529C177.59 65.6509 177.8 63.9191 178.397 62.3574C178.993 60.7841 179.925 59.5328 181.192 58.6034C182.47 57.6614 183.972 57.1104 185.699 56.9506C188.29 56.7109 190.402 57.3393 192.035 58.8358C193.68 60.3313 194.641 62.5784 194.918 65.5773L195.109 67.6427L183.049 68.7587C183.327 69.9805 183.909 70.927 184.795 71.5982C185.693 72.2684 186.772 72.5451 188.032 72.4285C189.98 72.2482 191.438 71.4013 192.404 69.8879L195.147 72.4409C194.488 73.5846 193.539 74.5198 192.3 75.2465C191.06 75.9614 189.652 76.3918 188.077 76.5376ZM186.061 61.048C185.057 61.1409 184.272 61.5549 183.704 62.29C183.149 63.024 182.841 64.0292 182.783 65.3057L189.819 64.6546L189.782 64.252C189.655 63.1339 189.272 62.2985 188.632 61.7457C187.992 61.1812 187.134 60.9487 186.061 61.048ZM204.06 74.7055L198.984 75.1752L196.496 48.29L201.572 47.8203L204.06 74.7055ZM213.582 73.8244L208.506 74.2941L206.753 55.3554L211.829 54.8857L213.582 73.8244ZM206.002 50.482C205.932 49.7236 206.125 49.0761 206.582 48.5395C207.05 48.0019 207.722 47.6926 208.597 47.6116C209.46 47.5317 210.171 47.7131 210.73 48.1557C211.289 48.5982 211.603 49.1988 211.673 49.9573C211.745 50.7274 211.54 51.3818 211.061 51.9205C210.593 52.4581 209.933 52.7663 209.081 52.8452C208.229 52.924 207.518 52.7426 206.947 52.3011C206.389 51.8586 206.074 51.2522 206.002 50.482ZM225.296 68.9802C226.23 68.8938 226.965 68.5669 227.501 67.9995C228.037 67.4321 228.277 66.7214 228.221 65.8674L232.965 65.4285C233.072 66.7131 232.831 67.9241 232.242 69.0613C231.651 70.1869 230.783 71.1029 229.636 71.8092C228.5 72.5028 227.208 72.9165 225.761 73.0504C223.054 73.3009 220.839 72.6408 219.117 71.0702C217.394 69.4879 216.392 67.1798 216.111 64.1459L216.08 63.8133C215.81 60.8961 216.371 58.4963 217.762 56.614C219.153 54.7318 221.202 53.6654 223.909 53.4149C226.278 53.1957 228.237 53.697 229.786 54.9189C231.345 56.128 232.24 57.8517 232.471 60.0899L227.727 60.5289C227.613 59.5508 227.237 58.7854 226.597 58.2326C225.956 57.6682 225.158 57.4302 224.201 57.5187C223.022 57.6278 222.169 58.1422 221.643 59.0618C221.126 59.9687 220.957 61.3848 221.135 63.3102L221.184 63.8353C221.364 65.784 221.791 67.1568 222.465 67.9535C223.139 68.7503 224.083 69.0925 225.296 68.9802ZM241.797 71.2135L236.721 71.6832L234.969 52.7445L240.045 52.2748L241.797 71.2135ZM234.218 47.8711C234.148 47.1126 234.341 46.4651 234.797 45.9286C235.265 45.391 235.937 45.0817 236.812 45.0007C237.676 44.9208 238.387 45.1022 238.945 45.5447C239.504 45.9873 239.819 46.5879 239.889 47.3463C239.96 48.1165 239.756 48.7709 239.276 49.3096C238.808 49.8472 238.148 50.1554 237.296 50.2342C236.444 50.3131 235.733 50.1317 235.163 49.6902C234.604 49.2476 234.289 48.6413 234.218 47.8711ZM249.853 46.6714L250.284 51.3273L253.522 51.0277L253.866 54.7384L250.628 55.038L251.502 64.4898C251.567 65.19 251.747 65.6793 252.044 65.9579C252.34 66.2364 252.868 66.3406 253.626 66.2704C254.186 66.2186 254.678 66.1319 255.103 66.0102L255.457 69.8435C254.494 70.2387 253.487 70.4848 252.436 70.582C248.889 70.9103 246.915 69.2865 246.513 65.7106L245.569 55.5061L242.804 55.762L242.46 52.0513L245.226 51.7954L244.795 47.1395L249.853 46.6714ZM269.067 68.69C268.792 68.2565 268.57 67.7062 268.402 67.0392C267.304 68.5178 265.774 69.3478 263.814 69.5292C261.958 69.7009 260.368 69.3067 259.044 68.3465C257.731 67.3853 256.999 66.0878 256.848 64.4542C256.662 62.4471 257.26 60.8383 258.643 59.6276C260.037 58.4158 262.14 57.674 264.951 57.4021L267.279 57.1867L267.179 56.1015C267.098 55.2263 266.805 54.5472 266.302 54.0642C265.81 53.5802 265.079 53.383 264.111 53.4726C263.259 53.5514 262.607 53.8177 262.155 54.2715C261.714 54.7241 261.527 55.3064 261.593 56.0182L256.534 56.4863C256.433 55.3894 256.677 54.3429 257.268 53.3467C257.858 52.3506 258.747 51.5328 259.936 50.8932C261.123 50.242 262.487 49.8451 264.027 49.7026C266.361 49.4866 268.265 49.9047 269.739 50.957C271.224 51.9964 272.065 53.5781 272.261 55.7018L273.021 63.9109C273.199 65.7068 273.575 67.043 274.151 67.9195L274.178 68.2171L269.067 68.69ZM264.558 65.5589C265.305 65.4898 265.979 65.2628 266.578 64.8777C267.177 64.481 267.602 63.9886 267.854 63.4004L267.553 60.1448L265.662 60.3197C263.13 60.554 261.863 61.5539 261.862 63.3193L261.872 63.6185C261.93 64.2486 262.2 64.7474 262.681 65.1148C263.163 65.4822 263.788 65.6302 264.558 65.5589ZM284.843 63.4701C285.776 63.3837 286.511 63.0568 287.047 62.4894C287.583 61.922 287.823 61.2112 287.768 60.3573L292.511 59.9183C292.618 61.203 292.377 62.4139 291.788 63.5512C291.198 64.6768 290.329 65.5927 289.182 66.2991C288.046 66.9926 286.755 67.4064 285.308 67.5403C282.6 67.7908 280.386 67.1307 278.663 65.5601C276.94 63.9778 275.938 61.6696 275.657 58.6357L275.626 58.3032C275.357 55.3859 275.917 52.9862 277.308 51.1039C278.699 49.2216 280.748 48.1552 283.456 47.9047C285.824 47.6855 287.783 48.1869 289.332 49.4087C290.892 50.6178 291.787 52.3415 292.017 54.5798L287.274 55.0187C287.16 54.0407 286.783 53.2753 286.143 52.7225C285.503 52.158 284.704 51.9201 283.747 52.0086C282.569 52.1177 281.716 52.632 281.189 53.5517C280.673 54.4586 280.504 55.8747 280.682 57.8001L280.73 58.3252C280.911 60.2739 281.338 61.6466 282.012 62.4434C282.685 63.2401 283.629 63.5824 284.843 63.4701ZM301.343 65.7033L296.267 66.173L294.515 47.2344L299.591 46.7647L301.343 65.7033ZM293.764 42.361C293.694 41.6025 293.887 40.955 294.344 40.4185C294.812 39.8809 295.483 39.5716 296.358 39.4906C297.222 39.4107 297.933 39.592 298.492 40.0346C299.051 40.4772 299.365 41.0777 299.435 41.8362C299.507 42.6064 299.302 43.2608 298.823 43.7995C298.354 44.3371 297.694 44.6453 296.843 44.7241C295.991 44.8029 295.28 44.6216 294.709 44.1801C294.15 43.7375 293.835 43.1311 293.764 42.361ZM303.847 55.7448C303.673 53.8661 303.88 52.1581 304.467 50.6209C305.055 49.0836 305.988 47.8498 307.267 46.9194C308.558 45.9879 310.102 45.439 311.899 45.2727C314.454 45.0363 316.609 45.6254 318.364 47.04C320.131 48.4535 321.232 50.4936 321.667 53.1602L321.822 54.4522C322.09 57.3577 321.495 59.7666 320.036 61.6786C318.576 63.5791 316.481 64.6556 313.751 64.9083C311.02 65.161 308.757 64.4877 306.961 62.8885C305.177 61.2883 304.146 58.9829 303.868 55.9723L303.847 55.7448ZM308.939 55.6442C309.105 57.4413 309.571 58.7869 310.337 59.6811C311.101 60.5637 312.113 60.9466 313.373 60.83C314.598 60.7166 315.512 60.1613 316.114 59.1641C316.715 58.1552 316.92 56.6181 316.729 54.5527C316.566 52.7907 316.096 51.4573 315.318 50.5525C314.539 49.6476 313.526 49.253 312.278 49.3685C311.041 49.483 310.129 50.0558 309.541 51.0869C308.953 52.1064 308.752 53.6255 308.939 55.6442ZM328.699 44.0712L329.059 46.2445C330.256 44.4273 331.992 43.4134 334.268 43.2028C336.275 43.0171 337.823 43.4681 338.912 44.556C340.002 45.6439 340.666 47.3594 340.907 49.7027L342.039 61.9376L336.98 62.4057L335.86 50.2933C335.76 49.2198 335.455 48.4654 334.944 48.0302C334.432 47.5833 333.633 47.41 332.548 47.5105C331.124 47.6422 330.113 48.3478 329.513 49.6272L330.749 62.9823L325.69 63.4504L323.938 44.5117L328.699 44.0712ZM354.638 61.1247C351.861 61.3817 349.519 60.7394 347.611 59.1977C345.714 57.6549 344.635 55.4657 344.373 52.6302L344.327 52.1401C344.151 50.2381 344.362 48.5062 344.959 46.9446C345.555 45.3713 346.486 44.1199 347.754 43.1906C349.032 42.2485 350.534 41.6976 352.261 41.5378C354.852 41.2981 356.964 41.9265 358.597 43.423C360.241 44.9184 361.203 47.1656 361.48 50.1645L361.671 52.2299L349.611 53.3459C349.889 54.5676 350.471 55.5142 351.357 56.1854C352.254 56.8555 353.333 57.1323 354.594 57.0157C356.542 56.8353 358 55.9885 358.966 54.475L361.709 57.0281C361.05 58.1718 360.101 59.107 358.862 59.8336C357.621 60.5486 356.214 60.979 354.638 61.1247ZM352.623 45.6352C351.619 45.728 350.834 46.142 350.266 46.8771C349.71 47.6112 349.403 48.6164 349.345 49.8928L356.381 49.2417L356.344 48.8391C356.217 47.7211 355.834 46.8857 355.194 46.3329C354.553 45.7684 353.696 45.5358 352.623 45.6352ZM375.056 53.604C374.999 52.9856 374.645 52.5299 373.994 52.2371C373.353 51.9315 372.344 51.7013 370.964 51.5465C366.372 51.0181 363.943 49.3128 363.677 46.4306C363.521 44.7503 364.086 43.2858 365.371 42.037C366.666 40.7756 368.44 40.0407 370.692 39.8323C373.096 39.6098 375.068 39.9981 376.608 40.9972C378.16 41.9952 379.019 43.3985 379.187 45.2072L374.128 45.6753C374.061 44.9518 373.773 44.3783 373.263 43.9547C372.752 43.5195 372 43.3478 371.008 43.4396C370.157 43.5184 369.515 43.7719 369.084 44.2002C368.653 44.6285 368.465 45.1402 368.52 45.7353C368.572 46.2954 368.876 46.7262 369.434 47.0277C370.002 47.3164 370.928 47.5308 372.212 47.6709C373.495 47.7993 374.583 47.9811 375.475 48.2163C378.238 48.9492 379.731 50.5234 379.955 52.9389C380.115 54.6659 379.503 56.1347 378.121 57.3454C376.737 58.5444 374.872 59.2524 372.527 59.4694C370.94 59.6163 369.502 59.4669 368.213 59.0212C366.935 58.5628 365.901 57.8759 365.11 56.9605C364.318 56.0334 363.869 54.9981 363.763 53.8546L368.559 53.4108C368.689 54.305 369.085 54.9627 369.748 55.3839C370.411 55.8051 371.261 55.9676 372.3 55.8715C373.268 55.7819 373.981 55.5335 374.438 55.1264C374.905 54.7066 375.111 54.1991 375.056 53.604ZM388.154 49.7793L383.953 50.1681L381.724 32.5622L387.115 32.0634L388.154 49.7793ZM386.309 52.7392C387.161 52.6604 387.867 52.8481 388.427 53.3024C388.998 53.7555 389.32 54.373 389.392 55.1549C389.464 55.925 389.26 56.5853 388.781 57.1356C388.314 57.6849 387.655 57.9989 386.803 58.0778C385.963 58.1555 385.257 57.9678 384.686 57.5146C384.126 57.0604 383.81 56.4482 383.739 55.678C383.668 54.9079 383.865 54.2481 384.333 53.6989C384.81 53.1369 385.469 52.817 386.309 52.7392ZM397.921 48.8756L393.72 49.2643L391.491 31.6584L396.882 31.1596L397.921 48.8756ZM396.076 51.8354C396.928 51.7566 397.634 51.9443 398.194 52.3986C398.765 52.8518 399.087 53.4693 399.159 54.2511C399.231 55.0212 399.027 55.6815 398.548 56.2318C398.081 56.7811 397.422 57.0951 396.57 57.174C395.73 57.2517 395.024 57.064 394.452 56.6108C393.893 56.1566 393.577 55.5444 393.506 54.7742C393.434 54.0041 393.632 53.3444 394.099 52.7951C394.577 52.2331 395.236 51.9132 396.076 51.8354ZM407.687 47.9718L403.487 48.3605L401.258 30.7547L406.649 30.2558L407.687 47.9718ZM405.843 50.9317C406.695 50.8528 407.401 51.0406 407.96 51.4948C408.532 51.948 408.854 52.5655 408.926 53.3473C408.997 54.1174 408.794 54.7777 408.315 55.328C407.848 55.8773 407.189 56.1914 406.337 56.2702C405.497 56.3479 404.791 56.1602 404.219 55.7071C403.659 55.2528 403.344 54.6406 403.273 53.8704C403.201 53.1003 403.399 52.4406 403.866 51.8913C404.344 51.3293 405.003 51.0094 405.843 50.9317Z" fill="#00BF97"/>
</svg>
