<svg width="571" height="383" viewBox="0 0 571 383" fill="none" xmlns="http://www.w3.org/2000/svg">
<path d="M156.61 382.454L141.78 336.061C141.78 336.061 158.093 345.174 158.835 356.772C158.835 356.772 155.127 298.782 147.712 286.355C147.712 286.355 159.576 288.012 172.924 352.63C172.924 352.63 175.148 278.071 155.127 256.531C155.127 256.531 182.564 281.385 184.788 335.233V382.454H156.61Z" fill="#F2F2F2"/>
<path d="M434.738 382.454L431.172 371.299C431.172 371.299 435.095 373.49 435.273 376.279C435.273 376.279 434.382 362.336 432.599 359.348C432.599 359.348 435.451 359.746 438.661 375.283C438.661 375.283 439.195 357.356 434.382 352.177C434.382 352.177 440.978 358.153 441.513 371.1V382.454L434.738 382.454Z" fill="#F2F2F2"/>
<path d="M368.677 286.514C404.682 286.514 433.87 253.905 433.87 213.68C433.87 173.455 404.682 140.846 368.677 140.846C332.672 140.846 303.484 173.455 303.484 213.68C303.484 253.905 332.672 286.514 368.677 286.514Z" fill="#F2F2F2"/>
<path d="M153.765 5.72659H0V101.164H153.765V5.72659Z" fill="#F2F2F2"/>
<path d="M362.383 5.72659H208.617V101.164H362.383V5.72659Z" fill="#F2F2F2"/>
<path d="M571 5.72659H417.235V101.164H571V5.72659Z" fill="#F2F2F2"/>
<path d="M395.27 382.716C395.167 382.527 392.734 377.989 391.89 368.565C391.117 359.919 391.614 345.345 398.379 325.016C411.196 286.504 395.426 255.43 395.264 255.121L396.043 254.617C396.083 254.695 400.153 262.618 402.557 275.233C405.733 291.959 404.576 309.349 399.222 325.366C386.428 363.812 395.94 382.013 396.037 382.192L395.27 382.716Z" fill="#3F3D56"/>
<path d="M390.258 252.859C393.486 252.859 396.103 249.936 396.103 246.33C396.103 242.723 393.486 239.8 390.258 239.8C387.03 239.8 384.413 242.723 384.413 246.33C384.413 249.936 387.03 252.859 390.258 252.859Z" fill="#00BF97"/>
<path d="M408.692 276.97C411.92 276.97 414.537 274.046 414.537 270.44C414.537 266.834 411.92 263.91 408.692 263.91C405.464 263.91 402.847 266.834 402.847 270.44C402.847 274.046 405.464 276.97 408.692 276.97Z" fill="#3F3D56"/>
<path d="M396.103 293.044C399.331 293.044 401.948 290.12 401.948 286.514C401.948 282.908 399.331 279.984 396.103 279.984C392.875 279.984 390.258 282.908 390.258 286.514C390.258 290.12 392.875 293.044 396.103 293.044Z" fill="#00BF97"/>
<path d="M411.39 306.606C414.618 306.606 417.235 303.682 417.235 300.076C417.235 296.47 414.618 293.546 411.39 293.546C408.162 293.546 405.545 296.47 405.545 300.076C405.545 303.682 408.162 306.606 411.39 306.606Z" fill="#00BF97"/>
<path d="M391.607 327.703C394.835 327.703 397.452 324.779 397.452 321.173C397.452 317.566 394.835 314.643 391.607 314.643C388.379 314.643 385.762 317.566 385.762 321.173C385.762 324.779 388.379 327.703 391.607 327.703Z" fill="#3F3D56"/>
<path d="M398.801 382.956C398.801 382.956 392.956 366.882 410.49 354.827L398.801 382.956Z" fill="#3F3D56"/>
<path d="M391.612 382.664C391.612 382.664 388.952 365.571 368.364 365.718L391.612 382.664Z" fill="#3F3D56"/>
<path d="M153.541 0.201172H0.224854V8.74033H153.541V0.201172Z" fill="#3F3D56"/>
<path d="M362.607 0.201172H208.842V8.74033H362.607V0.201172Z" fill="#3F3D56"/>
<path d="M570.775 0.201172H417.459V8.74033H570.775V0.201172Z" fill="#3F3D56"/>
<path d="M39.5653 22.0514H11.6897V44.1526H39.5653V22.0514Z" fill="white"/>
<path d="M142.076 22.0514H65.1929V24.5629H142.076V22.0514Z" fill="white"/>
<path d="M142.076 32.0974H65.1929V34.609H142.076V32.0974Z" fill="white"/>
<path d="M142.076 42.1434H65.1929V44.655H142.076V42.1434Z" fill="white"/>
<path d="M248.183 22.0514H220.307V44.1526H248.183V22.0514Z" fill="#00BF97"/>
<path d="M350.693 22.0514H273.81V24.5629H350.693V22.0514Z" fill="white"/>
<path d="M350.693 32.0974H273.81V34.609H350.693V32.0974Z" fill="white"/>
<path d="M350.693 42.1434H273.81V44.655H350.693V42.1434Z" fill="white"/>
<path d="M456.8 22.0514H428.925V44.1526H456.8V22.0514Z" fill="white"/>
<path d="M559.31 22.0514H482.427V24.5629H559.31V22.0514Z" fill="white"/>
<path d="M559.31 32.0974H482.427V34.609H559.31V32.0974Z" fill="white"/>
<path d="M559.31 42.1434H482.427V44.655H559.31V42.1434Z" fill="white"/>
<path d="M25.6276 43.3993C30.5938 43.3993 34.6198 38.9015 34.6198 33.3532C34.6198 27.8049 30.5938 23.3072 25.6276 23.3072C20.6614 23.3072 16.6355 27.8049 16.6355 33.3532C16.6355 38.9015 20.6614 43.3993 25.6276 43.3993Z" fill="#00BF97"/>
<path d="M442.862 43.3993C447.828 43.3993 451.854 38.9015 451.854 33.3532C451.854 27.8049 447.828 23.3072 442.862 23.3072C437.896 23.3072 433.87 27.8049 433.87 33.3532C433.87 38.9015 437.896 43.3993 442.862 43.3993Z" fill="#00BF97"/>
<path d="M71.8343 101.164H70.9351V104.178H71.8343V101.164Z" fill="#3F3D56"/>
<path d="M71.8343 224.73H70.9351V218.703H71.8343V224.73ZM71.8343 212.675H70.9351V206.648H71.8343V212.675ZM71.8343 200.62H70.9351V194.592H71.8343V200.62ZM71.8343 188.565H70.9351V182.537H71.8343V188.565ZM71.8343 176.509H70.9351V170.482H71.8343V176.509ZM71.8343 164.454H70.9351V158.427H71.8343V164.454ZM71.8343 152.399H70.9351V146.371H71.8343V152.399ZM71.8343 140.344H70.9351V134.316H71.8343V140.344ZM71.8343 128.288H70.9351V122.261H71.8343V128.288ZM71.8343 116.233H70.9351V110.206H71.8343V116.233Z" fill="#3F3D56"/>
<path d="M74.082 234.274H70.9348V230.758H71.8339V233.269H74.082V234.274Z" fill="#3F3D56"/>
<path d="M486 234.274H480.58V233.27H486V234.274ZM475.16 234.274H469.74V233.27H475.16V234.274ZM464.32 234.274H458.9V233.27H464.32V234.274ZM453.48 234.274H448.06V233.27H453.48V234.274ZM442.64 234.274H437.22V233.27H442.64V234.274ZM431.8 234.274H426.38V233.27H431.8V234.274ZM420.96 234.274H415.54V233.27H420.96V234.274ZM410.12 234.274H404.7V233.27H410.12V234.274ZM399.281 234.274H393.86V233.27H399.281V234.274ZM388.44 234.274H383.02V233.27H388.44L388.44 234.274ZM377.601 234.274H372.18V233.27H377.601V234.274ZM366.76 234.274H361.341V233.27H366.76V234.274ZM355.921 234.274H350.5V233.27H355.921V234.274ZM345.081 234.274H339.661V233.27H345.081V234.274ZM334.241 234.274H328.821V233.27H334.241V234.274ZM323.401 234.274H317.981V233.27H323.401V234.274ZM312.561 234.274H307.141V233.27H312.561V234.274ZM301.721 234.274H296.301V233.27H301.721V234.274ZM290.881 234.274H285.461V233.27H290.881V234.274ZM280.041 234.274H274.621V233.27H280.041V234.274ZM269.201 234.274H263.781V233.27H269.201V234.274ZM258.361 234.274H252.941V233.27H258.361V234.274ZM247.521 234.274H242.101V233.27H247.521V234.274ZM236.681 234.274H231.261V233.27H236.681V234.274ZM225.841 234.274H220.421V233.27H225.841V234.274ZM215.001 234.274H209.581V233.27H215.001V234.274ZM204.161 234.274H198.741V233.27H204.161V234.274ZM193.322 234.274H187.901V233.27H193.322V234.274ZM182.482 234.274H177.061V233.27H182.482V234.274ZM171.642 234.274H166.222V233.27H171.642V234.274ZM160.802 234.274H155.382V233.27H160.802V234.274ZM149.962 234.274H144.542V233.27H149.962V234.274ZM139.122 234.274H133.702V233.27H139.122V234.274ZM128.282 234.274H122.862V233.27H128.282V234.274ZM117.442 234.274H112.022V233.27H117.442V234.274ZM106.602 234.274H101.182V233.27H106.602V234.274ZM95.762 234.274H90.3421V233.27H95.762V234.274ZM84.9221 234.274H79.5022V233.27H84.9221L84.9221 234.274Z" fill="#3F3D56"/>
<path d="M494.567 234.274H491.42V233.269H493.668V230.758H494.567V234.274Z" fill="#3F3D56"/>
<path d="M494.567 224.73H493.667V218.703H494.567V224.73ZM494.567 212.675H493.667V206.648H494.567V212.675ZM494.567 200.62H493.667V194.592H494.567V200.62ZM494.567 188.565H493.667V182.537H494.567V188.565ZM494.567 176.509H493.667V170.482H494.567V176.509ZM494.567 164.454H493.667V158.427H494.567V164.454ZM494.567 152.399H493.667V146.371H494.567V152.399ZM494.567 140.344H493.667V134.316H494.567V140.344ZM494.567 128.288H493.667V122.261H494.567V128.288ZM494.567 116.233H493.667V110.206H494.567V116.233Z" fill="#3F3D56"/>
<path d="M494.567 101.164H493.667V104.178H494.567V101.164Z" fill="#3F3D56"/>
<path d="M362.383 203.634H208.617V382.454H362.383V203.634Z" fill="#3F3D56"/>
<path d="M248.183 226.991H220.307V249.092H248.183V226.991Z" fill="white"/>
<path d="M350.693 226.991H273.81V229.502H350.693V226.991Z" fill="white"/>
<path d="M350.693 237.037H273.81V239.548H350.693V237.037Z" fill="white"/>
<path d="M350.693 247.083H273.81V249.594H350.693V247.083Z" fill="white"/>
<path d="M248.183 306.606H220.307V328.707H248.183V306.606Z" fill="white"/>
<path d="M350.693 306.606H273.81V309.117H350.693V306.606Z" fill="white"/>
<path d="M350.693 316.652H273.81V319.163H350.693V316.652Z" fill="white"/>
<path d="M350.693 326.698H273.81V329.21H350.693V326.698Z" fill="white"/>
<path d="M234.363 243.631L224.821 229.418L227.082 227.524L234.855 239.103L254.668 221.176L256.457 223.619L234.363 243.631Z" fill="#00BF97"/>
<path d="M234.363 322.493L224.821 308.28L227.082 306.386L234.855 317.965L254.668 300.037L256.457 302.48L234.363 322.493Z" fill="#00BF97"/>
<path d="M559.31 381.951H4.04663V382.955H559.31V381.951Z" fill="#3F3D56"/>
<path d="M304.854 106.689C304.854 106.689 319.692 99.4665 326.66 107.096C333.629 114.726 308.002 112.215 304.854 106.689Z" fill="#3F3D56"/>
<path d="M330.474 72.4346C325.488 63.0223 315.624 62.5836 315.624 62.5836C315.624 62.5836 306.011 61.2103 299.845 75.5454C294.097 88.9069 286.165 101.808 298.568 104.936L300.808 97.1456L302.196 105.516C303.961 105.657 305.733 105.691 307.502 105.617C320.785 105.138 333.434 105.757 333.027 100.432C332.485 93.3535 335.272 81.4912 330.474 72.4346Z" fill="#2F2E41"/>
<path d="M337.451 243.065C337.451 243.065 331.157 256.124 327.11 256.124C323.064 256.124 323.513 264.664 324.413 266.673C325.312 268.682 327.56 273.203 323.963 279.733C322.707 282.014 322.931 284.601 323.756 287.002C326.066 293.731 335.052 291.692 334.765 284.493C334.762 284.414 334.758 284.334 334.754 284.253C334.304 276.217 337.901 263.659 341.498 260.645C345.094 257.631 348.242 249.595 348.242 249.595L337.451 243.065Z" fill="#FFB8B8"/>
<path d="M294.289 240.051C294.289 240.051 300.583 253.111 304.63 253.111C308.676 253.111 308.227 261.65 307.327 263.659C306.428 265.668 304.18 270.189 307.777 276.719C309.033 279 308.809 281.587 307.984 283.989C305.674 290.717 296.688 288.678 296.975 281.479C296.978 281.4 296.982 281.32 296.986 281.24C297.436 273.203 293.839 260.645 290.242 257.631C286.645 254.618 283.498 246.581 283.498 246.581L294.289 240.051Z" fill="#FFB8B8"/>
<path d="M299.234 175.756L296.537 182.286C296.537 182.286 256.972 196.853 260.568 213.931C264.165 231.009 281.7 257.631 284.397 256.627C287.095 255.622 301.482 252.608 301.932 244.069C302.382 235.53 291.591 220.461 291.591 220.461L306.428 205.392L328.018 204.89L346.443 220.461C346.443 220.461 327.11 239.548 335.653 247.083C344.195 254.618 356.784 259.641 358.582 256.627C360.381 253.613 380.613 208.908 377.466 204.89C374.319 200.871 342.397 185.802 342.397 185.802L333.854 172.24L300.583 170.231L299.234 175.756Z" fill="#2F2E41"/>
<path d="M307.327 92.8761C307.327 92.8761 309.575 109.452 305.079 111.461C300.583 113.471 314.072 122.01 314.072 122.01H321.715L326.66 110.457C326.66 110.457 322.164 101.415 324.862 92.8761C327.56 84.3369 307.327 92.8761 307.327 92.8761Z" fill="#FFB8B8"/>
<path opacity="0.1" d="M307.327 92.8761C307.327 92.8761 309.575 109.452 305.079 111.461C300.583 113.471 314.072 122.01 314.072 122.01H321.715L326.66 110.457C326.66 110.457 322.164 101.415 324.862 92.8761C327.56 84.3369 307.327 92.8761 307.327 92.8761Z" fill="black"/>
<path d="M304.18 106.94C304.18 106.94 309.126 112.968 310.025 113.973C310.924 114.977 314.971 120.503 323.513 112.466C332.056 104.429 332.955 113.973 332.955 113.973V174.249C332.955 174.249 325.761 170.733 319.916 174.249C314.071 177.765 301.932 173.245 301.932 173.245L299.684 110.959L304.18 106.94Z" fill="white"/>
<path d="M307.483 106.941C307.483 106.941 303.281 104.931 299.684 106.941C296.087 108.95 283.498 118.996 284.398 123.517C285.297 128.037 296.987 159.682 288.894 174.751C280.801 189.82 279.452 193.839 279.452 193.839L299.235 182.286C299.235 182.286 314.521 171.738 313.172 165.208C311.823 158.678 307.483 106.941 307.483 106.941Z" fill="#00BF97"/>
<path d="M325.317 106.94C325.317 106.94 334.753 107.945 335.203 108.95C335.653 109.954 349.366 114.224 348.466 118.745C347.567 123.265 335.203 163.701 340.598 171.235C345.994 178.77 354.986 189.318 351.839 190.323C348.691 191.327 343.296 188.816 337.901 190.323C332.505 191.83 319.916 179.272 321.265 165.71C322.614 152.148 321.276 110.457 325.317 106.94Z" fill="#00BF97"/>
<path d="M302.831 202.88V207.903C302.831 207.903 300.583 219.456 307.777 218.954C314.971 218.452 310.475 204.89 310.475 204.89L310.025 200.369L302.831 202.88Z" fill="#FFB8B8"/>
<path d="M323.064 203.383C323.064 203.383 318.118 214.936 323.064 215.94C328.009 216.945 331.606 209.41 331.606 207.401C331.606 205.392 323.064 203.383 323.064 203.383Z" fill="#FFB8B8"/>
<path d="M329.583 88.1041C330.079 88.1041 330.482 87.2046 330.482 86.0949C330.482 84.9853 330.079 84.0857 329.583 84.0857C329.086 84.0857 328.684 84.9853 328.684 86.0949C328.684 87.2046 329.086 88.1041 329.583 88.1041Z" fill="#FFB8B8"/>
<path d="M303.056 88.1041C303.553 88.1041 303.955 87.2046 303.955 86.0949C303.955 84.9853 303.553 84.0857 303.056 84.0857C302.56 84.0857 302.157 84.9853 302.157 86.0949C302.157 87.2046 302.56 88.1041 303.056 88.1041Z" fill="#FFB8B8"/>
<path d="M337.451 113.47C337.451 113.47 348.691 113.47 348.242 118.493C347.792 123.517 332.955 209.913 332.955 209.913C332.955 209.913 326.66 203.383 321.265 204.89L337.451 113.47Z" fill="#00BF97"/>
<path d="M293.839 114.977C293.839 114.977 282.599 117.489 282.599 125.023C282.599 132.558 298.785 204.89 301.033 204.89C303.281 204.89 311.824 203.383 311.824 200.871C311.824 198.36 293.839 114.977 293.839 114.977Z" fill="#00BF97"/>
<path opacity="0.2" d="M296.312 129.795L306.428 173.994C306.428 173.994 301.707 135.321 296.312 129.795Z" fill="black"/>
<path opacity="0.2" d="M335.66 123.585L325.429 181.372C325.429 181.372 328.699 126.918 335.66 123.585Z" fill="black"/>
<path d="M316.32 100.913C323.521 100.913 329.358 94.3911 329.358 86.3461C329.358 78.3011 323.521 71.7793 316.32 71.7793C309.119 71.7793 303.281 78.3011 303.281 86.3461C303.281 94.3911 309.119 100.913 316.32 100.913Z" fill="#FFB8B8"/>
<path d="M328.27 71.5275L318.524 65.8243L305.066 68.1571L302.281 81.8969L309.213 81.5992L311.149 76.5514V81.516L314.347 81.3784L316.204 73.3418L317.364 81.8969L328.734 81.638L328.27 71.5275Z" fill="#2F2E41"/>
</svg>
