<svg width="474" height="57" viewBox="0 0 474 57" fill="none" xmlns="http://www.w3.org/2000/svg">
<path d="M24.7393 47.7121C25.7486 47.7121 26.5852 48.0661 27.2491 48.7741C27.9131 49.4821 28.2451 50.3344 28.2451 51.3308C28.2451 52.3011 27.9131 53.1271 27.2491 53.8089C26.5852 54.4906 25.7486 54.8315 24.7393 54.8315H19.9588C16.7186 54.8315 13.9433 53.6909 11.6327 51.4095C9.34863 49.1543 8.20661 46.4141 8.20661 43.1887V19.8243H3.50574C1.9919 19.8243 0.916272 19.1163 0.278865 17.7003C0.0929551 17.2807 0 16.8349 0 16.3629C0 14.8682 0.717083 13.8062 2.15125 13.1769C2.57619 12.9933 3.02768 12.9015 3.50574 12.9015H8.20661V4.72008C8.20661 2.64849 9.16272 1.20624 11.0749 0.39334C11.6327 0.131113 12.2435 0 12.9075 0C14.2089 0 15.1915 0.340894 15.8555 1.02268C17.0241 2.15026 17.6084 3.38272 17.6084 4.72008V12.9015H24.819C25.7486 12.9015 26.4657 13.1507 26.9703 13.6489C27.8201 14.488 28.2451 15.3927 28.2451 16.3629C28.2451 17.3069 27.9131 18.1198 27.2491 18.8016C26.5852 19.4834 25.7751 19.8243 24.819 19.8243H17.6084V43.11C17.6084 44.4212 17.9536 45.3914 18.6441 46.0207C19.8127 47.1483 21.0344 47.7121 22.3092 47.7121H24.7393Z" fill="white"/>
<path d="M57.9642 13.8456C58.6547 13.19 59.2788 12.7442 59.8366 12.5082C60.4208 12.246 61.0317 12.1149 61.6691 12.1149C62.3331 12.1149 62.9439 12.2329 63.5016 12.4689C64.0859 12.7049 64.5905 13.0327 65.0155 13.4522C65.945 14.37 66.4098 15.4582 66.4098 16.7169V50.8981C66.4098 52.1831 66.0778 53.1795 65.4139 53.8875C64.2718 55.0413 63.1829 55.6182 62.1472 55.6182C61.1379 55.6182 60.381 55.5002 59.8764 55.2642C59.3718 55.0544 58.9601 54.8053 58.6414 54.5169C58.1368 54.0973 57.7783 53.6777 57.5658 53.2582C57.3799 52.8124 57.2073 52.4846 57.0479 52.2748C56.8885 52.0651 56.6362 51.9602 56.291 51.9602C55.9723 51.9602 55.7067 52.0782 55.4942 52.3142C55.2818 52.5239 54.9365 52.8648 54.4584 53.3368C52.8649 54.8578 51.112 55.6182 49.1998 55.6182C47.3142 55.6182 45.7339 55.3167 44.4591 54.7135C43.1843 54.0842 42.0688 53.232 41.1127 52.1568C39.0943 49.8755 38.085 47.1483 38.085 43.9754V16.7169C38.085 14.724 39.0412 13.3211 40.9534 12.5082C41.5111 12.246 42.1087 12.1149 42.7461 12.1149C43.4101 12.1149 44.0342 12.2329 44.6185 12.4689C45.2028 12.7049 45.7074 13.0327 46.1323 13.4522C47.0619 14.37 47.5266 15.4582 47.5266 16.7169V43.8574C47.5266 45.1685 47.8586 46.1518 48.5226 46.8074C49.6912 47.9612 50.9129 48.5381 52.1877 48.5381C54.2858 48.5381 55.7465 47.7252 56.5698 46.0994C56.8354 45.5749 56.9682 44.9849 56.9682 44.3294V16.7169C56.9682 15.432 57.3002 14.4749 57.9642 13.8456Z" fill="white"/>
<path d="M99.6261 48.3017C100.654 48.3017 101.52 48.6665 102.224 49.396C102.928 50.1256 103.279 51.0037 103.279 52.0305C103.279 53.0303 102.928 53.8814 102.224 54.5839C101.52 55.2865 100.654 55.6377 99.6261 55.6377H90.0465C86.7451 55.6377 83.9172 54.4623 81.5629 52.1116C79.2086 49.7608 78.0315 46.9372 78.0315 43.6407V23.7403C78.0315 20.0655 79.2763 17.1338 81.7659 14.9452C84.3637 12.7295 87.9358 11.6217 92.482 11.6217C96.9741 11.6217 100.519 12.7295 103.117 14.9452C105.634 17.1609 106.892 20.1196 106.892 23.8214V35.1699C106.892 36.5209 106.554 37.5341 105.877 38.2097C104.714 39.3715 103.442 39.9525 102.062 39.9525H87.6516V43.5597C87.6516 44.9377 87.9899 45.951 88.6664 46.5994C89.8571 47.7343 91.1154 48.3017 92.4414 48.3017H99.6261ZM97.2718 23.7403C97.2718 22.3893 96.9335 21.376 96.257 20.7005C95.0663 19.5116 93.808 18.9172 92.482 18.9172C91.129 18.9172 90.1007 19.2684 89.3971 19.971C88.2335 21.1328 87.6516 22.3893 87.6516 23.7403V32.8596H97.2718V23.7403Z" fill="white"/>
<path d="M138.472 21.0653C137.308 19.6332 135.888 18.9172 134.21 18.9172C132.749 18.9172 131.666 19.2684 130.963 19.971C129.799 21.1328 129.217 22.3893 129.217 23.7403V43.5597C129.217 44.9377 129.555 45.951 130.232 46.5994C131.423 47.7343 132.681 48.3017 134.007 48.3017H143.992C145.589 48.3017 146.712 49.0718 147.362 50.612C147.551 51.0443 147.646 51.5171 147.646 52.0305C147.646 52.5169 147.551 52.9897 147.362 53.4491C147.172 53.8814 146.915 54.2597 146.59 54.5839C145.887 55.2865 145.021 55.6377 143.992 55.6377H131.612C128.311 55.6377 125.483 54.4623 123.128 52.1116C120.774 49.7608 119.597 46.9372 119.597 43.6407V23.5376C119.597 20.052 120.774 17.2419 123.128 15.1073C125.699 12.7836 129.325 11.6217 134.007 11.6217C140.312 11.6217 144.52 13.0808 146.631 15.999C147.307 16.8907 147.646 17.7958 147.646 18.7145C147.646 19.6062 147.524 20.3493 147.28 20.9437C147.037 21.5111 146.699 22.011 146.266 22.4433C145.345 23.362 144.304 23.8214 143.14 23.8214C141.246 23.8214 139.69 22.9027 138.472 21.0653Z" fill="white"/>
<path d="M212.064 54.7055C211.388 55.354 210.752 55.7998 210.156 56.043C209.588 56.3132 208.966 56.4483 208.289 56.4483C207.64 56.4483 207.017 56.3267 206.422 56.0836C205.854 55.8404 205.353 55.5026 204.92 55.0703C203.973 54.1246 203.499 53.0032 203.499 51.7063V16.4854C203.499 15.1614 203.838 14.1346 204.514 13.405C205.678 12.2162 206.774 11.6217 207.802 11.6217C208.857 11.6217 209.642 11.7298 210.156 11.9459C210.67 12.1621 211.103 12.4323 211.455 12.7566C211.915 13.1619 212.254 13.5942 212.47 14.0535C212.714 14.5129 212.903 14.8506 213.038 15.0668C213.201 15.283 213.444 15.391 213.769 15.391C214.121 15.391 214.418 15.283 214.662 15.0668L215.352 14.3778C217.327 12.5404 219.303 11.6217 221.278 11.6217C224.769 11.6217 227.651 13.0538 229.924 15.9179C230.141 16.2151 230.411 16.3638 230.736 16.3638C231.304 16.3638 231.873 15.9314 232.441 15.0668C233.036 14.1751 233.983 13.378 235.282 12.6755C236.581 11.973 238.097 11.6217 239.829 11.6217C241.56 11.6217 243.13 11.9459 244.537 12.5944C245.971 13.2159 247.216 14.0805 248.272 15.1884C250.491 17.5121 251.6 20.3222 251.6 23.6187V51.7063C251.6 53.7598 250.626 55.2054 248.677 56.043C248.082 56.3132 247.446 56.4483 246.77 56.4483C246.12 56.4483 245.498 56.3267 244.902 56.0836C244.334 55.8404 243.834 55.5026 243.401 55.0703C242.481 54.0976 242.021 52.9762 242.021 51.7063V23.7403C242.021 22.3893 241.682 21.376 241.006 20.7005C239.815 19.5116 238.719 18.9172 237.718 18.9172C236.717 18.9172 235.932 19.0523 235.364 19.3225C234.795 19.5657 234.281 19.9169 233.821 20.3763C232.874 21.322 232.4 22.4163 232.4 23.6592V51.7063C232.4 53.7598 231.44 55.2054 229.518 56.043C228.923 56.3132 228.287 56.4483 227.611 56.4483C226.961 56.4483 226.339 56.3267 225.743 56.0836C225.148 55.8404 224.634 55.5026 224.201 55.0703C223.254 54.1246 222.78 53.0032 222.78 51.7063V23.7403C222.78 22.3893 222.442 21.376 221.765 20.7005C220.575 19.5116 219.33 18.9172 218.031 18.9172C215.866 18.9172 214.364 19.7548 213.525 21.4301C213.255 21.9705 213.119 22.5784 213.119 23.2539V51.7063C213.119 53.0303 212.768 54.03 212.064 54.7055Z" fill="white"/>
<path d="M274.412 54.7055C273.736 55.354 273.1 55.7998 272.505 56.043C271.936 56.3132 271.314 56.4483 270.637 56.4483C269.988 56.4483 269.366 56.3267 268.77 56.0836C268.202 55.8404 267.701 55.5026 267.268 55.0703C266.321 54.1246 265.848 53.0032 265.848 51.7063V16.4854C265.848 15.1614 266.186 14.1346 266.862 13.405C268.026 12.2162 269.122 11.6217 270.15 11.6217C271.206 11.6217 271.99 11.7298 272.505 11.9459C273.019 12.1621 273.452 12.4323 273.804 12.7566C274.264 13.1619 274.602 13.5942 274.818 14.0535C275.062 14.5129 275.251 14.8506 275.387 15.0668C275.549 15.283 275.792 15.391 276.117 15.391C276.469 15.391 276.767 15.283 277.01 15.0668L277.7 14.3778C279.676 12.5404 281.651 11.6217 283.627 11.6217C287.117 11.6217 289.999 13.0538 292.273 15.9179C292.489 16.2151 292.76 16.3638 293.084 16.3638C293.653 16.3638 294.221 15.9314 294.789 15.0668C295.385 14.1751 296.332 13.378 297.631 12.6755C298.93 11.973 300.445 11.6217 302.177 11.6217C303.909 11.6217 305.478 11.9459 306.885 12.5944C308.32 13.2159 309.564 14.0805 310.62 15.1884C312.839 17.5121 313.948 20.3222 313.948 23.6187V51.7063C313.948 53.7598 312.974 55.2054 311.026 56.043C310.43 56.3132 309.795 56.4483 309.118 56.4483C308.469 56.4483 307.846 56.3267 307.251 56.0836C306.683 55.8404 306.182 55.5026 305.749 55.0703C304.829 54.0976 304.369 52.9762 304.369 51.7063V23.7403C304.369 22.3893 304.031 21.376 303.354 20.7005C302.163 19.5116 301.067 18.9172 300.066 18.9172C299.065 18.9172 298.28 19.0523 297.712 19.3225C297.144 19.5657 296.629 19.9169 296.169 20.3763C295.222 21.322 294.749 22.4163 294.749 23.6592V51.7063C294.749 53.7598 293.788 55.2054 291.867 56.043C291.271 56.3132 290.635 56.4483 289.959 56.4483C289.309 56.4483 288.687 56.3267 288.092 56.0836C287.496 55.8404 286.982 55.5026 286.549 55.0703C285.602 54.1246 285.129 53.0032 285.129 51.7063V23.7403C285.129 22.3893 284.79 21.376 284.114 20.7005C282.923 19.5116 281.678 18.9172 280.379 18.9172C278.214 18.9172 276.713 19.7548 275.874 21.4301C275.603 21.9705 275.468 22.5784 275.468 23.2539V51.7063C275.468 53.0303 275.116 54.03 274.412 54.7055Z" fill="white"/>
<path d="M349.019 48.3017C350.048 48.3017 350.914 48.6665 351.617 49.396C352.321 50.1256 352.672 51.0037 352.672 52.0305C352.672 53.0303 352.321 53.8814 351.617 54.5839C350.914 55.2865 350.048 55.6377 349.019 55.6377H339.44C336.138 55.6377 333.31 54.4623 330.956 52.1116C328.602 49.7608 327.425 46.9372 327.425 43.6407V23.7403C327.425 20.0655 328.669 17.1338 331.159 14.9452C333.757 12.7295 337.329 11.6217 341.875 11.6217C346.367 11.6217 349.912 12.7295 352.51 14.9452C355.027 17.1609 356.285 20.1196 356.285 23.8214V35.1699C356.285 36.5209 355.947 37.5341 355.27 38.2097C354.107 39.3715 352.835 39.9525 351.455 39.9525H337.045V43.5597C337.045 44.9377 337.383 45.951 338.06 46.5994C339.25 47.7343 340.509 48.3017 341.835 48.3017H349.019ZM346.665 23.7403C346.665 22.3893 346.327 21.376 345.65 20.7005C344.46 19.5116 343.201 18.9172 341.875 18.9172C340.522 18.9172 339.494 19.2684 338.79 19.971C337.627 21.1328 337.045 22.3893 337.045 23.7403V32.8596H346.665V23.7403Z" fill="white"/>
<path d="M387.825 11.6217C388.501 11.6217 389.164 11.7163 389.814 11.9054C390.463 12.0946 391.072 12.3918 391.64 12.7971C392.939 13.7428 393.589 15.0533 393.589 16.7285C393.589 18.0795 393.237 19.0928 392.533 19.7683C391.315 20.9302 390.179 21.5111 389.124 21.5111C387.77 21.5111 386.539 21.0788 385.43 20.2141C384.564 19.6467 383.59 19.363 382.507 19.363C381.425 19.363 380.572 19.7143 379.95 20.4168C379.327 21.0923 379.016 21.957 379.016 23.0107V51.6657C379.016 52.9627 378.678 53.9625 378.001 54.665C376.784 55.8539 375.674 56.4483 374.673 56.4483C373.699 56.4483 372.914 56.3132 372.319 56.043C371.75 55.7998 371.25 55.4621 370.817 55.0298C369.87 54.0841 369.396 52.9627 369.396 51.6657V16.4854C369.396 15.1614 369.748 14.1346 370.452 13.405C371.588 12.2162 372.671 11.6217 373.699 11.6217C374.754 11.6217 375.539 11.7433 376.053 11.9865C376.567 12.2026 377 12.4593 377.352 12.7566C377.839 13.1889 378.191 13.6347 378.407 14.0941C378.624 14.5264 378.8 14.8506 378.935 15.0668C379.097 15.283 379.341 15.391 379.666 15.391C380.018 15.391 380.302 15.283 380.518 15.0668L381.249 14.3778C383.36 12.5404 385.551 11.6217 387.825 11.6217Z" fill="white"/>
<path d="M422.449 21.0653C421.285 19.6332 419.865 18.9172 418.187 18.9172C416.726 18.9172 415.643 19.2684 414.94 19.971C413.776 21.1328 413.194 22.3893 413.194 23.7403V43.5597C413.194 44.9377 413.532 45.951 414.209 46.5994C415.4 47.7343 416.658 48.3017 417.984 48.3017H427.969C429.566 48.3017 430.689 49.0718 431.339 50.612C431.528 51.0443 431.623 51.5171 431.623 52.0305C431.623 52.5169 431.528 52.9897 431.339 53.4491C431.149 53.8814 430.892 54.2597 430.567 54.5839C429.864 55.2865 428.998 55.6377 427.969 55.6377H415.589C412.288 55.6377 409.46 54.4623 407.105 52.1116C404.751 49.7608 403.574 46.9372 403.574 43.6407V23.5376C403.574 20.052 404.751 17.2419 407.105 15.1073C409.676 12.7836 413.302 11.6217 417.984 11.6217C424.289 11.6217 428.497 13.0808 430.608 15.999C431.284 16.8907 431.623 17.7958 431.623 18.7145C431.623 19.6062 431.501 20.3493 431.257 20.9437C431.014 21.5111 430.676 22.011 430.243 22.4433C429.322 23.362 428.281 23.8214 427.117 23.8214C425.223 23.8214 423.667 22.9027 422.449 21.0653Z" fill="white"/>
<path d="M466.734 48.3017C467.762 48.3017 468.628 48.6665 469.332 49.396C470.036 50.1256 470.387 51.0037 470.387 52.0305C470.387 53.0303 470.036 53.8814 469.332 54.5839C468.628 55.2865 467.762 55.6377 466.734 55.6377H457.155C453.853 55.6377 451.025 54.4623 448.671 52.1116C446.317 49.7608 445.14 46.9372 445.14 43.6407V23.7403C445.14 20.0655 446.384 17.1338 448.874 14.9452C451.472 12.7295 455.044 11.6217 459.59 11.6217C464.082 11.6217 467.627 12.7295 470.225 14.9452C472.742 17.1609 474 20.1196 474 23.8214V35.1699C474 36.5209 473.662 37.5341 472.985 38.2097C471.822 39.3715 470.55 39.9525 469.17 39.9525H454.76V43.5597C454.76 44.9377 455.098 45.951 455.775 46.5994C456.965 47.7343 458.224 48.3017 459.549 48.3017H466.734ZM464.38 23.7403C464.38 22.3893 464.042 21.376 463.365 20.7005C462.174 19.5116 460.916 18.9172 459.59 18.9172C458.237 18.9172 457.209 19.2684 456.505 19.971C455.342 21.1328 454.76 22.3893 454.76 23.7403V32.8596H464.38V23.7403Z" fill="white"/>
<path fill-rule="evenodd" clip-rule="evenodd" d="M197.487 39.9205C198.081 37.9193 198.399 35.8055 198.399 33.62C198.399 21.0122 187.807 10.7916 174.741 10.7916C168.41 10.7916 162.66 13.1908 158.415 17.0982L162.796 18.3204L163.93 28.6528L163.937 28.6971C164.504 32.2467 165.403 37.8762 171.976 39.2457C171.976 39.2457 178.077 40.5165 187.496 40.28C192.025 40.1663 195.304 40.0307 197.487 39.9205ZM189.649 51.3463C185.581 54.5364 180.392 56.4483 174.741 56.4483C161.675 56.4483 151.082 46.2277 151.082 33.62C151.082 28.7587 152.657 24.2523 155.341 20.5498L159.238 21.8358C159.84 36.9695 163.781 40.0436 165.852 41.4624C166.387 41.778 167.215 42.1814 168.096 42.6106C168.755 42.9315 169.443 43.2668 170.06 43.5905C163.447 53.0491 177.49 54.7394 176.072 44.7729H188.097C186.689 48.8769 187.856 50.9152 189.649 51.3463Z" fill="white"/>
</svg>
