<svg width="492" height="260" viewBox="0 0 492 260" fill="none" xmlns="http://www.w3.org/2000/svg">
<path d="M458.947 259.305C452.419 254.979 449.132 246.751 449.002 238.973C448.958 236.365 449.623 233.341 451.982 232.181C452.657 231.849 453.412 231.708 454.163 231.773C454.914 231.839 455.632 232.109 456.238 232.553C456.844 232.997 457.315 233.598 457.598 234.29C457.881 234.982 457.966 235.738 457.843 236.475C458.718 233.937 459.853 231.495 461.23 229.187C462.396 227.232 464.034 225.199 466.318 225.013C468.968 224.797 471.182 227.347 471.557 229.954C471.933 232.561 470.975 235.156 470.034 237.619C470.3 236.503 470.844 235.472 471.616 234.618C472.389 233.765 473.365 233.117 474.456 232.734C475.547 232.351 476.717 232.245 477.86 232.425C479.002 232.606 480.081 233.068 480.997 233.768C483.589 235.75 484.443 239.397 483.791 242.574C483.139 245.752 481.224 248.532 479.106 251.006C476.624 253.906 473.749 256.556 470.307 258.239C466.865 259.923 462.794 260.567 459.132 259.425L458.947 259.305Z" fill="#F2F2F2"/>
<path d="M370.852 155.264C371.736 154.821 372.512 154.189 373.127 153.411C373.742 152.633 374.18 151.729 374.41 150.762C374.64 149.796 374.657 148.79 374.459 147.816C374.262 146.842 373.855 145.923 373.267 145.125L389 68.1948L374.318 68L363.392 143.954C362.126 145.038 361.298 146.552 361.066 148.21C360.835 149.867 361.214 151.552 362.134 152.946C363.053 154.34 364.449 155.346 366.056 155.774C367.663 156.201 369.369 156.02 370.852 155.264V155.264Z" fill="#FFB8B8"/>
<path d="M442.821 151.139C443.555 150.464 444.129 149.639 444.504 148.722C444.879 147.805 445.045 146.819 444.99 145.832C444.935 144.845 444.661 143.882 444.187 143.011C443.713 142.14 443.051 141.381 442.247 140.789L435.371 63L421 67.0159L432.281 142.499C431.36 143.894 430.99 145.574 431.243 147.219C431.495 148.864 432.352 150.361 433.651 151.426C434.951 152.49 436.602 153.049 438.292 152.997C439.982 152.944 441.593 152.283 442.821 151.139Z" fill="#FFB8B8"/>
<path d="M396.999 252L389.545 251.999L386 222L397 222.001L396.999 252Z" fill="#FFB8B8"/>
<path d="M383.659 250H399V260H374C374 257.348 375.018 254.804 376.829 252.929C378.641 251.054 381.097 250 383.659 250Z" fill="#2F2E41"/>
<path d="M431.999 252L423.868 251.999L420 222L432 222.001L431.999 252Z" fill="#FFB8B8"/>
<path d="M418.273 250H433V260H409C409 257.348 409.977 254.804 411.716 252.929C413.455 251.054 415.813 250 418.273 250Z" fill="#2F2E41"/>
<path d="M399 38C407.837 38 415 31.0604 415 22.5C415 13.9396 407.837 7 399 7C390.163 7 383 13.9396 383 22.5C383 31.0604 390.163 38 399 38Z" fill="#FFB8B8"/>
<path d="M420.786 233C420.155 232.997 419.545 232.777 419.058 232.377C418.571 231.977 418.239 231.422 418.116 230.805L407.637 176.771C407.541 176.276 407.271 175.832 406.874 175.519C406.478 175.207 405.982 175.046 405.477 175.066C404.972 175.086 404.491 175.286 404.121 175.63C403.751 175.973 403.517 176.438 403.461 176.939L397.594 229.571C397.525 230.213 397.226 230.809 396.753 231.251C396.28 231.692 395.664 231.95 395.016 231.977L386.216 232.375C385.858 232.394 385.5 232.341 385.163 232.219C384.827 232.097 384.518 231.909 384.256 231.666C383.991 231.426 383.777 231.135 383.626 230.812C383.476 230.488 383.391 230.138 383.377 229.782L380.003 148.48C379.984 148.069 380.061 147.66 380.226 147.284C380.391 146.907 380.64 146.573 380.954 146.307L382.906 144.648C383.398 144.23 384.023 144 384.669 144H430.282C431.003 144.001 431.694 144.286 432.203 144.794C432.713 145.302 432.999 145.991 433 146.709V229.879C433.001 230.578 432.731 231.249 432.247 231.754C431.762 232.258 431.101 232.556 430.4 232.586L420.902 232.998C420.863 232.999 420.824 233 420.786 233Z" fill="#2F2E41"/>
<path d="M397.66 156C390.37 156.001 383.944 154.021 380.7 148.247C380.429 147.771 380.302 147.225 380.335 146.675L384.411 83.1765C384.444 82.6631 384.293 82.1549 383.987 81.7457L372.55 66.4628C372.336 66.1764 372.179 65.8497 372.089 65.5014C371.999 65.1531 371.977 64.79 372.025 64.4331C372.072 64.0762 372.189 63.7323 372.367 63.4213C372.546 63.1104 372.782 62.8383 373.064 62.6208L390.22 49.3741C390.58 49.0951 390.843 48.705 390.968 48.2619L391.467 46.4793C391.622 45.9241 391.945 45.433 392.391 45.0766C392.836 44.7202 393.381 44.5167 393.947 44.4953L406.536 44.0016C406.956 43.9872 407.373 44.0724 407.755 44.2505C408.137 44.4286 408.473 44.6946 408.737 45.0277L410.077 46.7342C410.248 46.9521 410.459 47.1336 410.698 47.2684L431.752 59.1259C432.167 59.3606 432.514 59.7032 432.758 60.119C433.002 60.5348 433.133 61.0088 433.139 61.4931L433.139 61.5311L433.13 61.5673C428.223 82.4225 428.499 108.783 433.999 144.526C434.014 145.071 433.868 145.609 433.581 146.069C433.295 146.529 432.879 146.892 432.389 147.11C427.832 149.121 411.247 156 397.66 156Z" fill="white"/>
<path d="M384.263 91H369.737C369.364 91.0006 368.996 90.923 368.653 90.7721C368.311 90.6212 368.002 90.4001 367.747 90.1224C367.491 89.8447 367.293 89.5164 367.165 89.1574C367.038 88.7985 366.983 88.4166 367.005 88.0353C367.221 84.2412 367.647 77.0258 368.074 71.3356C368.689 63.1472 376.515 59.1169 376.593 59.0767L376.746 59L382.03 62.4384L386.947 87.6444C387.026 88.0514 387.017 88.4714 386.918 88.8741C386.82 89.2768 386.636 89.6521 386.38 89.9731C386.123 90.2941 385.8 90.5527 385.434 90.7302C385.068 90.9078 384.668 90.9999 384.263 91H384.263Z" fill="white"/>
<path d="M424.715 89C424.333 88.9976 423.956 88.9161 423.607 88.7608C423.259 88.6055 422.948 88.3797 422.693 88.0982C422.439 87.8166 422.247 87.4855 422.131 87.1263C422.014 86.767 421.975 86.3876 422.016 86.0125L424.689 61.7341L429.852 58L429.97 58.0129C430.025 58.0193 435.526 58.6975 437.991 64.7801C439.745 69.1117 442.426 77.1172 443.867 81.5037C443.983 81.8563 444.024 82.2286 443.987 82.5974C443.95 82.9661 443.836 83.3234 443.653 83.6468C443.47 83.9702 443.221 84.2528 442.922 84.4767C442.623 84.7007 442.28 84.8613 441.915 84.9484L425.373 88.9211C425.158 88.9734 424.937 88.9999 424.715 89Z" fill="white"/>
<path d="M399.475 38C402.713 32.7684 398.671 18.367 389.863 17.9913C387.829 17.9045 387.048 14.8824 386.357 12.9274C386.005 11.794 385.912 10.5933 386.084 9.41728C386.256 8.24124 386.689 7.12095 387.35 6.14206C388.695 4.19135 390.547 2.66335 392.697 1.73045C395.116 0.595651 397.745 0.00549867 400.406 3.82413e-05C403.068 -0.00542218 405.7 0.573944 408.123 1.69881C410.546 2.82367 412.703 4.4677 414.449 6.51935C416.195 8.571 417.489 10.9822 418.242 13.5895C418.995 16.1967 419.19 18.9388 418.814 21.6298C418.438 24.3208 417.499 26.8977 416.062 29.1856C414.625 31.4735 412.722 33.4188 410.484 34.8896C408.246 36.3604 405.724 37.3222 403.089 37.7098L399.475 38Z" fill="#2F2E41"/>
<path d="M12.5 59C14.433 59 16 57.433 16 55.5C16 53.567 14.433 52 12.5 52C10.567 52 9 53.567 9 55.5C9 57.433 10.567 59 12.5 59Z" fill="white"/>
<path d="M23.5 59C25.433 59 27 57.433 27 55.5C27 53.567 25.433 52 23.5 52C21.567 52 20 53.567 20 55.5C20 57.433 21.567 59 23.5 59Z" fill="white"/>
<path d="M34 59C36.2091 59 38 57.433 38 55.5C38 53.567 36.2091 52 34 52C31.7909 52 30 53.567 30 55.5C30 57.433 31.7909 59 34 59Z" fill="white"/>
<path d="M296.864 99H14.1364C10.3872 99 6.79154 97.4197 4.14046 94.6066C1.48937 91.7936 0 87.9782 0 84C0 80.0218 1.48937 76.2065 4.14046 73.3934C6.79154 70.5804 10.3872 69 14.1364 69H296.864C300.613 69 304.208 70.5804 306.86 73.3934C309.511 76.2065 311 80.0218 311 84C311 87.9782 309.511 91.7936 306.86 94.6066C304.208 97.4197 300.613 99 296.864 99ZM14.1364 70.9355C10.8709 70.9355 7.73926 72.3119 5.43025 74.762C3.12125 77.2121 1.82405 80.5351 1.82405 84C1.82405 87.4649 3.12125 90.788 5.43025 93.238C7.73926 95.6881 10.8709 97.0645 14.1364 97.0645H296.864C300.129 97.0645 303.261 95.6881 305.57 93.238C307.879 90.788 309.176 87.4649 309.176 84C309.176 80.5351 307.879 77.2121 305.57 74.762C303.261 72.3119 300.129 70.9355 296.864 70.9355H14.1364Z" fill="white"/>
<path d="M76.5714 88H23.4286C22.254 88 21.1276 87.5259 20.2971 86.682C19.4666 85.8381 19 84.6935 19 83.5C19 82.3065 19.4666 81.1619 20.2971 80.318C21.1276 79.4741 22.254 79 23.4286 79H76.5714C77.746 79 78.8724 79.4741 79.7029 80.318C80.5334 81.1619 81 82.3065 81 83.5C81 84.6935 80.5334 85.8381 79.7029 86.682C78.8724 87.5259 77.746 88 76.5714 88Z" fill="white"/>
<path d="M288.5 87C287.61 87 286.74 86.7361 286 86.2416C285.26 85.7472 284.683 85.0444 284.343 84.2221C284.002 83.3998 283.913 82.495 284.086 81.6221C284.26 80.7492 284.689 79.9474 285.318 79.318C285.947 78.6887 286.749 78.2601 287.622 78.0865C288.495 77.9128 289.4 78.002 290.222 78.3425C291.044 78.6831 291.747 79.2599 292.242 79.9999C292.736 80.74 293 81.61 293 82.5C292.999 83.6931 292.524 84.8369 291.681 85.6805C290.837 86.5241 289.693 86.9987 288.5 87ZM288.5 79.2857C287.864 79.2857 287.243 79.4742 286.714 79.8274C286.186 80.1806 285.774 80.6826 285.53 81.2699C285.287 81.8573 285.223 82.5036 285.347 83.1271C285.471 83.7506 285.778 84.3233 286.227 84.7729C286.677 85.2224 287.249 85.5285 287.873 85.6525C288.496 85.7765 289.143 85.7129 289.73 85.4696C290.317 85.2263 290.819 84.8144 291.173 84.2858C291.526 83.7572 291.714 83.1357 291.714 82.5C291.713 81.6478 291.374 80.8308 290.772 80.2282C290.169 79.6257 289.352 79.2867 288.5 79.2857Z" fill="white"/>
<path d="M295.335 91C295.248 91.0001 295.162 90.983 295.081 90.9495C295 90.9161 294.927 90.8671 294.865 90.8052L290.195 86.1346C290.133 86.0729 290.084 85.9996 290.051 85.919C290.017 85.8384 290 85.7519 290 85.6647C290 85.5774 290.017 85.4909 290.051 85.4103C290.084 85.3297 290.133 85.2564 290.195 85.1947C290.256 85.1329 290.33 85.084 290.41 85.0506C290.491 85.0172 290.577 85 290.665 85C290.752 85 290.838 85.0172 290.919 85.0506C291 85.084 291.073 85.1329 291.135 85.1947L295.805 89.8653C295.898 89.9582 295.962 90.0767 295.987 90.2056C296.013 90.3345 296 90.4682 295.949 90.5896C295.899 90.711 295.814 90.8149 295.705 90.8879C295.595 90.9609 295.467 90.9999 295.335 91L295.335 91Z" fill="white"/>
</svg>
