<svg width="490" height="339" viewBox="0 0 490 339" fill="none" xmlns="http://www.w3.org/2000/svg">
<path d="M359.505 0.195953H0.15332V221.859H359.505V0.195953Z" fill="#E6E6E6"/>
<path d="M349.23 27.9979H10.4291V208.745H349.23V27.9979Z" fill="white"/>
<path d="M359.352 0H0V14.7038H359.352V0Z" fill="white"/>
<path d="M11.3454 10.2433C12.9082 10.2433 14.1752 9.02303 14.1752 7.51778C14.1752 6.01254 12.9082 4.7923 11.3454 4.7923C9.78256 4.7923 8.51562 6.01254 8.51562 7.51778C8.51562 9.02303 9.78256 10.2433 11.3454 10.2433Z" fill="white"/>
<path d="M22.0854 10.2433C23.6482 10.2433 24.9152 9.02303 24.9152 7.51778C24.9152 6.01254 23.6482 4.7923 22.0854 4.7923C20.5226 4.7923 19.2556 6.01254 19.2556 7.51778C19.2556 9.02303 20.5226 10.2433 22.0854 10.2433Z" fill="white"/>
<path d="M32.8254 10.2433C34.3882 10.2433 35.6552 9.02303 35.6552 7.51778C35.6552 6.01254 34.3882 4.7923 32.8254 4.7923C31.2625 4.7923 29.9956 6.01254 29.9956 7.51778C29.9956 9.02303 31.2625 10.2433 32.8254 10.2433Z" fill="white"/>
<path d="M118.379 42.8648H52.1143V112.106H118.379V42.8648Z" fill="#E6E6E6"/>
<path d="M212.961 42.8648H146.697V112.106H212.961V42.8648Z" fill="#E6E6E6"/>
<path d="M307.543 42.8648H241.278V112.106H307.543V42.8648Z" fill="#E6E6E6"/>
<path d="M118.379 124.639H52.1143V193.881H118.379V124.639Z" fill="#E6E6E6"/>
<path d="M212.961 124.639H146.697V193.881H212.961V124.639Z" fill="#E6E6E6"/>
<path d="M307.543 124.639H241.278V193.881H307.543V124.639Z" fill="#E6E6E6"/>
<path d="M162.713 142.434L174.82 137.824L176.228 160.875C176.228 160.875 178.762 167.926 177.917 170.638C177.917 170.638 178.48 175.248 177.072 175.519C175.664 175.79 171.721 176.333 171.443 176.062C171.164 175.79 171.161 174.977 171.161 174.977C171.161 174.977 168.345 176.875 168.064 179.044C168.064 179.044 156.238 182.569 155.957 179.315C155.675 176.061 161.869 173.349 161.869 173.349L166.656 166.298L162.713 142.434Z" fill="white"/>
<path d="M188.336 142.434L200.442 137.824L201.85 160.875C201.85 160.875 204.383 167.926 203.539 170.638C203.539 170.638 204.102 175.248 202.694 175.519C201.286 175.79 197.343 176.333 197.065 176.062C196.786 175.79 196.783 174.977 196.783 174.977C196.783 174.977 193.967 176.875 193.686 179.044C193.686 179.044 181.86 182.569 181.579 179.315C181.297 176.061 187.491 173.349 187.491 173.349L192.278 166.298L188.336 142.434Z" fill="white"/>
<path d="M189.519 53.42C189.519 53.42 186.941 60.358 189.928 63.4866L187.438 71.7286C187.438 71.7286 196.285 97.2935 193.758 100.865C193.758 100.865 184.32 105.409 165.443 99.2411L173.111 70.5921L172.016 58.4995L173.532 52.8182L176.903 52.4961C176.903 52.4961 174.881 59.8002 178.588 60.9367C182.296 62.0732 185.913 52.6786 185.913 52.6786L189.519 53.42Z" fill="#3F3D56"/>
<path d="M70.4636 98.2061L73.717 99.4881L89.2443 79.8331L94.1241 102.906L97.3775 102.336C99.4643 82.4443 101.168 62.1548 99.078 52.5584L87.026 52.0597L81.5548 68.8683L78.8928 80.2626L70.4636 98.2061Z" fill="white"/>
<path d="M267.917 52.4011C267.917 52.4011 263.477 58.3459 263.693 60.745C263.91 63.1441 266.726 102.256 266.726 102.256L273.332 102.569L271.381 74.4084L273.005 66.7945L277.012 102.256L285.134 102.465L277.879 56.4692L276.471 52.4016L267.917 52.4011Z" fill="white"/>
<path d="M293.011 148.175C291.832 146.812 289.805 146.076 287.859 145.677C287.915 145.507 281.941 144.318 281.84 144.563L279.587 142.835L272.667 146.296L268.778 143.746L266.971 144.363C267.045 144.056 261.364 145.004 261.364 145.004C260.278 145.042 258.892 145.107 257.34 145.222C251.907 145.625 251.488 159.18 251.488 159.18C253.988 158.195 256.654 157.657 259.354 157.593L260.823 173.806C268.377 173.182 276.299 173.908 284.511 175.685L288.362 162.94L297.33 159.581C297.33 159.581 295.798 151.395 293.011 148.175Z" fill="#3F3D56"/>
<path d="M100.573 140.455C99.6013 139.332 97.932 138.725 96.3284 138.397C96.3763 138.256 91.452 137.277 91.3678 137.479L89.5117 136.055L83.8104 138.907L80.6061 136.806L79.1179 137.315C79.1786 137.062 74.4972 137.843 74.4972 137.843C73.6054 137.874 72.4606 137.928 71.1825 138.023C66.7052 138.355 66.3607 149.522 66.3607 149.522C68.4208 148.711 70.6173 148.268 72.8424 148.215L74.0525 180.916C80.2766 180.401 86.8046 181 93.5689 182.464L96.7414 152.621L104.131 149.854C104.131 149.854 102.869 143.109 100.573 140.455Z" fill="white"/>
<path d="M417.723 149.159H449.493V132.786C449.493 128.728 447.819 124.836 444.84 121.967C441.861 119.098 437.821 117.486 433.608 117.486C429.395 117.486 425.354 119.098 422.375 121.967C419.396 124.836 417.723 128.728 417.723 132.786V149.159Z" fill="#2F2E41"/>
<path d="M403.54 331.329H396.708L393.456 305.941H403.542L403.54 331.329Z" fill="#FFB6B6"/>
<path d="M405.283 329.18H391.826C389.551 329.18 387.37 330.05 385.762 331.599C384.154 333.148 383.25 335.249 383.25 337.439V337.708H405.283V329.18Z" fill="#2F2E41"/>
<path d="M485.226 322.546L479.275 325.781L463.486 305.215L472.268 300.44L485.226 322.546Z" fill="#FFB6B6"/>
<path d="M485.646 319.849L473.928 326.219C471.947 327.296 470.492 329.087 469.882 331.198C469.272 333.308 469.558 335.565 470.676 337.473L470.813 337.706L490 327.274L485.646 319.849Z" fill="#2F2E41"/>
<path d="M441.553 217.161L442.08 219.7C442.08 219.7 443.662 221.223 442.871 221.985C442.08 222.747 442.344 226.302 442.344 226.302C442.787 232.785 451.581 269.214 453.154 276.329C453.154 276.329 465.283 283.947 474.774 298.93C484.266 313.912 484.528 317.721 484.528 317.721L473.984 322.039L447.62 291.312C447.62 291.312 440.238 286.995 437.601 283.186C434.964 279.377 418.614 240.015 418.614 240.015L409.384 281.154C409.384 281.154 409.912 296.137 407.539 305.787C406.08 311.876 405.198 318.081 404.903 324.324L392.51 323.055C392.51 323.055 393.301 286.995 394.62 283.185C394.62 283.185 389.083 239.253 400.157 221.731L409.081 198.816L417.822 195.575L441.553 217.161Z" fill="#2F2E41"/>
<path d="M433.772 121.488C417.136 121.762 417.139 145.596 433.772 145.867C450.407 145.593 450.404 121.76 433.772 121.488Z" fill="#FFB8B8"/>
<path d="M420.968 133.045H423.796L424.566 131.191L424.18 133.045H439.645L439.143 129.166L442.902 133.045H446.651V130.943C446.653 129.319 446.322 127.711 445.678 126.21C445.033 124.709 444.088 123.345 442.897 122.195C441.705 121.046 440.29 120.134 438.733 119.512C437.176 118.889 435.506 118.568 433.82 118.567C432.134 118.566 430.464 118.884 428.905 119.505C427.347 120.125 425.931 121.035 424.737 122.183C423.544 123.331 422.597 124.693 421.951 126.193C421.304 127.693 420.971 129.301 420.97 130.926V130.943L420.968 133.045Z" fill="#2F2E41"/>
<path d="M416.617 152.984L448.053 153.23L441.411 218.141C441.411 218.141 404.647 216.273 404.625 205.465L408.069 195.86L416.617 152.984Z" fill="#3F3D56"/>
<path d="M449.404 224.417C448.921 223.846 448.573 223.181 448.386 222.468C448.198 221.755 448.175 221.01 448.319 220.288C448.462 219.565 448.769 218.881 449.216 218.285C449.664 217.688 450.241 217.194 450.909 216.835L449.543 205.408L456.55 202.914L458.244 219.079C458.791 220.198 458.893 221.472 458.531 222.659C458.17 223.846 457.369 224.864 456.28 225.522C455.192 226.179 453.891 226.429 452.624 226.226C451.357 226.022 450.212 225.378 449.404 224.417Z" fill="#FFB6B6"/>
<path d="M443.919 158.822L448.055 153.253C448.055 153.253 450.886 152.648 454.231 156.406C457.575 160.164 459.526 207.136 459.526 207.136L447.263 209.821L440.018 176.537L443.919 158.822Z" fill="#3F3D56"/>
<path d="M374.629 209.761L375.541 251.492L403.591 265.769L454.673 256.983L455.928 213.604L423.545 202.622L374.629 209.761Z" fill="white"/>
<path d="M403.518 266.22L375.099 251.755L374.173 209.391L423.589 202.179L423.694 202.215L456.385 213.302L455.111 257.346L403.518 266.22ZM375.984 251.229L403.664 265.318L454.236 256.62L455.471 213.907L423.502 203.064L375.085 210.13L375.984 251.229Z" fill="#CACACA"/>
<path d="M402.965 221.075L402.856 221.033L374.464 210.161L374.795 209.359L403.077 220.19L455.867 213.177L455.989 214.032L402.965 221.075Z" fill="#CACACA"/>
<path d="M403.469 220.627L402.573 220.638L403.143 265.774L404.039 265.764L403.469 220.627Z" fill="#CACACA"/>
<path d="M399.377 218.915L389.143 214.919L438.412 207.358L448.646 211.353L399.377 218.915Z" fill="#CACACA"/>
<path d="M374.806 221.866L374.452 222.659L386.322 227.581L386.676 226.789L374.806 221.866Z" fill="#CACACA"/>
<path d="M380.181 236.103L379.827 236.895L391.697 241.818L392.051 241.025L380.181 236.103Z" fill="white"/>
<path d="M218.565 267.738L219.477 309.47L247.527 323.747L298.609 314.961L299.864 271.582L267.481 260.599L218.565 267.738Z" fill="white"/>
<path d="M247.454 324.197L219.035 309.733L218.109 267.368L267.524 260.157L267.63 260.193L300.32 271.279L299.047 315.324L247.454 324.197ZM219.919 309.207L247.6 323.296L298.172 314.598L299.406 271.884L267.438 261.042L219.021 268.108L219.919 309.207Z" fill="#CACACA"/>
<path d="M246.901 279.053L246.791 279.011L218.4 268.139L218.73 267.337L247.012 278.167L299.802 271.155L299.925 272.009L246.901 279.053Z" fill="#CACACA"/>
<path d="M247.405 278.605L246.509 278.615L247.079 323.752L247.975 323.741L247.405 278.605Z" fill="#CACACA"/>
<path d="M240.834 275.91L233.079 272.897L282.348 265.335L290.102 268.349L240.834 275.91Z" fill="#CACACA"/>
<path d="M218.742 279.844L218.388 280.636L230.258 285.559L230.612 284.766L218.742 279.844Z" fill="#CACACA"/>
<path d="M224.117 294.081L223.763 294.873L235.633 299.796L235.987 299.003L224.117 294.081Z" fill="white"/>
<path d="M267.295 273.46L268.354 321.904L300.915 338.477L360.214 328.278L361.669 277.922L324.079 265.173L267.295 273.46Z" fill="white"/>
<path d="M300.83 339L267.841 322.209L266.766 273.031L324.129 264.659L324.251 264.701L362.2 277.571L360.722 328.699L300.83 339ZM268.867 321.598L301 337.953L359.706 327.857L361.139 278.273L324.028 265.687L267.825 273.889L268.867 321.598Z" fill="#3F3D56"/>
<path d="M300.189 286.595L300.061 286.546L267.103 273.925L267.487 272.994L300.318 285.566L361.598 277.426L361.74 278.418L300.189 286.595Z" fill="#3F3D56"/>
<path d="M300.773 286.075L299.733 286.087L300.395 338.483L301.435 338.471L300.773 286.075Z" fill="#3F3D56"/>
<path d="M293.673 282.97L284.143 279.449L341.336 270.671L350.866 274.192L293.673 282.97Z" fill="#3F3D56"/>
<path d="M267.501 287.513L267.089 288.433L280.869 294.147L281.28 293.227L267.501 287.513Z" fill="#3F3D56"/>
<path d="M273.74 304.039L273.329 304.959L287.108 310.673L287.52 309.753L273.74 304.039Z" fill="white"/>
<path d="M390.533 216.661C391.224 216.348 391.836 215.893 392.326 215.328C392.815 214.763 393.17 214.102 393.365 213.39C393.56 212.679 393.591 211.935 393.455 211.211C393.32 210.487 393.021 209.8 392.58 209.199L398.946 199.466L393.749 194.298L384.959 208.163C383.961 208.944 383.294 210.05 383.085 211.273C382.877 212.495 383.141 213.749 383.828 214.796C384.515 215.844 385.577 216.612 386.813 216.956C388.048 217.299 389.372 217.195 390.533 216.661V216.661Z" fill="#FFB6B6"/>
<path d="M421.448 155.543L416.887 152.648C416.887 152.648 413.367 153.408 409.623 160.343C405.88 167.278 390.784 198.282 390.784 198.282L396.99 204.348L413.543 180.025L421.448 155.543Z" fill="#3F3D56"/>
</svg>
